<svg width="48" height="48" viewBox="0 0 48 48" fill="none" xmlns="http://www.w3.org/2000/svg">
<g filter="url(#filter0_dd_125_10849)">
<rect x="6" y="2" width="36" height="36" rx="18" fill="#4177F8"/>
</g>
<path d="M22.4045 19.7715C22.8284 19.5583 23.1489 19.3208 23.3685 19.0641C23.7592 18.6019 23.9521 17.989 23.9521 17.2292C23.9521 16.4899 23.7592 15.8579 23.3736 15.328C22.7301 14.4648 21.6409 14.023 20.101 14H14V26.4535H19.6885C20.3295 26.4535 20.9233 26.3986 21.4723 26.2862C22.0214 26.1726 22.4964 25.9644 22.8986 25.6605C23.2562 25.3962 23.5549 25.0681 23.7924 24.6812C24.1679 24.0963 24.3556 23.4336 24.3556 22.6956C24.3556 21.9805 24.1908 21.3715 23.864 20.8709C23.5332 20.3704 23.048 20.0039 22.4045 19.7715ZM16.5167 16.163H19.2646C19.8686 16.163 20.3666 16.2282 20.7573 16.3571C21.2093 16.5448 21.4353 16.9266 21.4353 17.5089C21.4353 18.0311 21.2629 18.3963 20.922 18.6019C20.5785 18.8075 20.1329 18.9109 19.5864 18.9109H16.5167V16.163ZM20.862 24.0734C20.5581 24.2202 20.1303 24.293 19.5826 24.293H16.5167V20.9718H19.6247C20.1661 20.9756 20.5875 21.0471 20.8888 21.1812C21.4251 21.4238 21.692 21.8682 21.692 22.5181C21.692 23.2842 21.4162 23.8001 20.862 24.0734Z" fill="white"/>
<path d="M32.4649 14.5811H27.0547V16.1312H32.4649V14.5811Z" fill="white"/>
<path d="M34.345 20.6989C34.2326 19.9774 33.9849 19.3428 33.5993 18.795C33.1766 18.1744 32.6403 17.7199 31.9878 17.4326C31.3379 17.144 30.6062 16.9997 29.7916 17.001C28.424 17.001 27.3131 17.4287 26.4538 18.2779C25.597 19.1296 25.168 20.3541 25.168 21.9502C25.168 23.6523 25.6417 24.8819 26.5943 25.6366C27.543 26.3925 28.6385 26.7692 29.8822 26.7692C31.3877 26.7692 32.5586 26.321 33.395 25.4272C33.93 24.8628 34.2326 24.3073 34.299 23.7621H31.8065C31.6622 24.0315 31.4949 24.2422 31.3034 24.3954C30.9561 24.6764 30.5041 24.8168 29.9499 24.8168C29.4226 24.8168 28.9756 24.7006 28.6028 24.4695C27.9873 24.0992 27.6656 23.4505 27.6247 22.5274H34.4267C34.4369 21.7319 34.4114 21.1202 34.345 20.6989ZM27.686 20.9376C27.7754 20.3388 27.9924 19.8638 28.3372 19.5126C28.682 19.1628 29.1697 18.9865 29.7941 18.9853C30.37 18.9853 30.8514 19.15 31.2434 19.4807C31.6303 19.814 31.8486 20.2979 31.8933 20.9376H27.686Z" fill="white"/>
<defs>
<filter id="filter0_dd_125_10849" x="0" y="0" width="48" height="48" filterUnits="userSpaceOnUse" color-interpolation-filters="sRGB">
<feFlood flood-opacity="0" result="BackgroundImageFix"/>
<feColorMatrix in="SourceAlpha" type="matrix" values="0 0 0 0 0 0 0 0 0 0 0 0 0 0 0 0 0 0 127 0" result="hardAlpha"/>
<feOffset dy="4"/>
<feGaussianBlur stdDeviation="3"/>
<feColorMatrix type="matrix" values="0 0 0 0 0 0 0 0 0 0 0 0 0 0 0 0 0 0 0.1 0"/>
<feBlend mode="normal" in2="BackgroundImageFix" result="effect1_dropShadow_125_10849"/>
<feColorMatrix in="SourceAlpha" type="matrix" values="0 0 0 0 0 0 0 0 0 0 0 0 0 0 0 0 0 0 127 0" result="hardAlpha"/>
<feOffset dy="2"/>
<feGaussianBlur stdDeviation="2"/>
<feColorMatrix type="matrix" values="0 0 0 0 0 0 0 0 0 0 0 0 0 0 0 0 0 0 0.06 0"/>
<feBlend mode="normal" in2="effect1_dropShadow_125_10849" result="effect2_dropShadow_125_10849"/>
<feBlend mode="normal" in="SourceGraphic" in2="effect2_dropShadow_125_10849" result="shape"/>
</filter>
</defs>
</svg>
