<svg width="201" height="60" viewBox="0 0 201 60" fill="none" xmlns="http://www.w3.org/2000/svg">
<rect x="0.839844" width="200" height="60" rx="30" fill="#4061F8"/>
<path d="M71.7379 29.506C72.6199 29.002 73.1239 28.174 73.1239 27.112V26.752C73.1239 24.754 71.4319 23.476 68.8219 23.476C65.8879 23.476 64.3039 24.97 64.3039 27.616V27.94H66.7879V27.616C66.7879 26.338 67.4359 25.762 68.8399 25.762C70.0099 25.762 70.6939 26.248 70.6939 27.094V27.328C70.6939 28.102 70.1179 28.516 69.0559 28.516H67.7059V30.676H69.0919C70.3159 30.676 70.9459 31.072 70.9459 31.846V32.098C70.9459 32.908 70.1179 33.448 68.9119 33.448C67.4179 33.448 66.7159 32.818 66.7159 31.54V31.252H64.2319V31.54C64.2319 34.24 65.8339 35.716 68.8759 35.716C71.5579 35.716 73.3939 34.348 73.3939 32.314V31.972C73.3939 30.802 72.8359 29.974 71.7379 29.506ZM83.1123 33.322C82.6803 33.322 82.4823 33.106 82.4823 32.692V29.776C82.4823 27.526 81.1143 26.248 78.7023 26.248C76.3083 26.248 74.8143 27.562 74.8143 29.632V29.758H77.2083V29.632C77.2083 28.858 77.7123 28.444 78.6663 28.444C79.5843 28.444 80.0703 28.876 80.0883 29.704V30.1L77.6043 30.424C75.6783 30.676 74.7243 31.576 74.7243 33.034C74.7243 34.69 75.9483 35.716 77.9103 35.716C79.0623 35.716 79.9803 35.374 80.6283 34.744C81.0423 35.23 81.6903 35.5 82.5183 35.5H83.7063V33.322H83.1123ZM78.2343 33.772C77.5323 33.772 77.0823 33.466 77.0823 32.98C77.0823 32.53 77.4423 32.224 78.1083 32.116L80.0883 31.81V32.854C79.7103 33.43 79.0263 33.772 78.2343 33.772ZM90.2239 30.964L92.7978 26.824V26.482H90.2239L88.1179 29.92H87.1099V26.482H84.7159V35.5H87.1099V32.062H88.1539L90.3679 35.5H92.9598V35.14L90.2239 30.964ZM101.78 33.322C101.348 33.322 101.15 33.106 101.15 32.692V29.776C101.15 27.526 99.7823 26.248 97.3703 26.248C94.9763 26.248 93.4823 27.562 93.4823 29.632V29.758H95.8763V29.632C95.8763 28.858 96.3803 28.444 97.3343 28.444C98.2523 28.444 98.7383 28.876 98.7563 29.704V30.1L96.2723 30.424C94.3463 30.676 93.3923 31.576 93.3923 33.034C93.3923 34.69 94.6163 35.716 96.5783 35.716C97.7303 35.716 98.6483 35.374 99.2963 34.744C99.7103 35.23 100.358 35.5 101.186 35.5H102.374V33.322H101.78ZM96.9023 33.772C96.2003 33.772 95.7503 33.466 95.7503 32.98C95.7503 32.53 96.1103 32.224 96.7763 32.116L98.7563 31.81V32.854C98.3783 33.43 97.6943 33.772 96.9023 33.772ZM109.72 30.946C110.494 30.568 110.908 29.938 110.908 29.092V28.858C110.908 27.274 109.396 26.266 107.056 26.266C104.59 26.266 103.024 27.526 103.024 29.506V29.74H105.364V29.542C105.364 28.696 105.94 28.3 107.074 28.3C108.046 28.3 108.55 28.57 108.55 29.11V29.254C108.55 29.758 108.172 30.028 107.452 30.028H105.904V31.882H107.56C108.244 31.882 108.622 32.17 108.622 32.692V32.836C108.622 33.394 108.064 33.7 107.056 33.7C105.922 33.7 105.364 33.304 105.364 32.494V32.26H103.024V32.566C103.024 34.546 104.518 35.716 107.038 35.716C109.504 35.716 110.998 34.744 110.998 33.106V32.872C110.998 31.972 110.548 31.324 109.72 30.946ZM120.571 33.322C120.139 33.322 119.941 33.106 119.941 32.692V29.776C119.941 27.526 118.573 26.248 116.161 26.248C113.767 26.248 112.273 27.562 112.273 29.632V29.758H114.667V29.632C114.667 28.858 115.171 28.444 116.125 28.444C117.043 28.444 117.529 28.876 117.547 29.704V30.1L115.063 30.424C113.137 30.676 112.183 31.576 112.183 33.034C112.183 34.69 113.407 35.716 115.369 35.716C116.521 35.716 117.439 35.374 118.087 34.744C118.501 35.23 119.149 35.5 119.977 35.5H121.165V33.322H120.571ZM115.693 33.772C114.991 33.772 114.541 33.466 114.541 32.98C114.541 32.53 114.901 32.224 115.567 32.116L117.547 31.81V32.854C117.169 33.43 116.485 33.772 115.693 33.772ZM123.589 35.5H126.001V28.642H128.593V26.482H121.015V28.642H123.589V35.5ZM134.396 29.236H132.11V26.482H129.716V35.5H134.396C136.43 35.5 137.708 34.33 137.708 32.44V32.278C137.708 30.406 136.43 29.236 134.396 29.236ZM135.314 32.44C135.314 33.088 134.918 33.448 134.18 33.448H132.11V31.288H134.18C134.9 31.288 135.314 31.666 135.314 32.296V32.44Z" fill="#FBFBFD"/>
</svg>
