<svg width="444" height="442" viewBox="0 0 444 442" fill="none" xmlns="http://www.w3.org/2000/svg">
<g filter="url(#filter0_d_125_2564)">
<path d="M429.163 177.574C429.163 214.232 399.446 243.949 362.788 243.949C326.13 243.949 296.413 214.232 296.413 177.574C296.413 140.916 326.13 111.199 362.788 111.199C399.446 111.199 429.163 140.916 429.163 177.574Z" fill="white"/>
</g>
<g opacity="0.6" filter="url(#filter1_d_125_2564)">
<path d="M372.674 191.68C372.42 190.241 371.112 188.889 369.753 188.662C368.394 188.434 366.959 187.544 366.444 186.734C365.93 185.923 365.73 184.243 366.098 182.915C366.465 181.587 365.79 179.829 364.592 178.991C363.396 178.152 361.514 178.12 360.39 178.919C359.268 179.718 357.623 180.106 356.688 179.899C355.753 179.692 354.424 178.647 353.744 177.448C353.064 176.249 351.345 175.484 349.905 175.737C348.465 175.991 347.111 177.299 346.882 178.658C346.652 180.017 345.763 181.454 344.954 181.968C344.146 182.483 342.467 182.681 341.139 182.314C339.811 181.947 338.054 182.62 337.215 183.818C336.376 185.016 336.344 186.897 337.143 188.02C337.943 189.143 338.329 190.789 338.12 191.726C337.912 192.664 336.872 193.993 335.673 194.671C334.474 195.349 333.708 197.067 333.962 198.506C334.216 199.946 335.523 201.3 336.882 201.529C338.241 201.758 339.675 202.651 340.191 203.459C340.707 204.266 340.905 205.944 340.538 207.272C340.171 208.6 340.845 210.358 342.042 211.196C343.24 212.034 345.121 212.067 346.245 211.268C347.368 210.469 349.012 210.081 349.948 210.289C350.884 210.497 352.212 211.546 352.892 212.742C353.572 213.938 355.291 214.703 356.731 214.449C358.171 214.196 359.524 212.889 359.754 211.532C359.984 210.175 360.872 208.737 361.68 208.22C362.488 207.704 364.168 207.506 365.496 207.874C366.825 208.241 368.582 207.567 369.42 206.37C370.259 205.172 370.292 203.29 369.492 202.168C368.693 201.044 368.304 199.4 368.511 198.464C368.718 197.529 369.765 196.201 370.964 195.521C372.162 194.839 372.928 193.12 372.674 191.68ZM354.57 202.196C350.643 202.888 346.908 200.273 346.217 196.354C345.524 192.427 348.14 188.691 352.067 187.999C355.985 187.308 359.721 189.923 360.414 193.85C361.105 197.77 358.489 201.505 354.57 202.196Z" fill="url(#paint0_linear_125_2564)"/>
<path d="M394.347 177.145C394.217 176.408 393.547 175.715 392.851 175.599C392.155 175.482 391.419 175.027 391.156 174.611C390.892 174.196 390.79 173.335 390.978 172.655C391.166 171.975 390.821 171.074 390.207 170.645C389.594 170.215 388.63 170.199 388.054 170.608C387.479 171.018 386.637 171.216 386.158 171.11C385.679 171.004 384.998 170.469 384.65 169.854C384.301 169.24 383.421 168.848 382.683 168.978C381.946 169.108 381.252 169.778 381.134 170.474C381.017 171.171 380.561 171.907 380.147 172.17C379.733 172.434 378.873 172.535 378.193 172.347C377.512 172.159 376.612 172.504 376.182 173.118C375.753 173.731 375.736 174.695 376.146 175.27C376.555 175.846 376.753 176.689 376.646 177.169C376.539 177.649 376.007 178.33 375.393 178.677C374.778 179.025 374.386 179.905 374.516 180.642C374.646 181.38 375.316 182.073 376.012 182.191C376.708 182.308 377.442 182.765 377.707 183.179C377.971 183.593 378.073 184.452 377.885 185.132C377.697 185.813 378.042 186.713 378.655 187.143C379.269 187.572 380.233 187.589 380.808 187.179C381.383 186.77 382.226 186.571 382.705 186.678C383.185 186.784 383.865 187.322 384.213 187.935C384.562 188.547 385.442 188.939 386.18 188.809C386.917 188.679 387.611 188.01 387.729 187.315C387.846 186.62 388.301 185.883 388.715 185.618C389.129 185.354 389.99 185.252 390.67 185.441C391.351 185.629 392.251 185.283 392.68 184.67C393.11 184.057 393.126 183.093 392.717 182.518C392.308 181.942 392.108 181.1 392.214 180.621C392.32 180.141 392.857 179.461 393.471 179.113C394.085 178.764 394.477 177.883 394.347 177.145ZM385.073 182.532C383.061 182.887 381.148 181.547 380.794 179.539C380.439 177.528 381.779 175.614 383.791 175.259C385.798 174.905 387.712 176.245 388.066 178.257C388.42 180.265 387.081 182.178 385.073 182.532Z" fill="url(#paint1_linear_125_2564)"/>
</g>
<path fill-rule="evenodd" clip-rule="evenodd" d="M300.797 309.006C301.756 308.271 302.701 307.52 303.633 306.752L304.472 307.741C303.517 308.527 302.549 309.297 301.567 310.05L300.797 309.006ZM306.387 304.402C307.29 303.603 308.179 302.789 309.052 301.96L310.024 302.832C309.129 303.681 308.219 304.515 307.293 305.333L306.387 304.402ZM294.907 313.207C295.912 312.542 296.905 311.86 297.886 311.16L298.585 312.256C297.58 312.973 296.563 313.672 295.534 314.353L294.907 313.207ZM311.622 299.434C312.461 298.579 313.284 297.71 314.09 296.828L315.186 297.572C314.36 298.476 313.517 299.367 312.657 300.243L311.622 299.434ZM288.777 316.967C289.818 316.377 290.849 315.77 291.87 315.144L292.423 316.336C291.378 316.977 290.322 317.6 289.257 318.203L288.777 316.967ZM316.451 294.147C317.218 293.244 317.967 292.328 318.698 291.401L319.908 292.012C319.159 292.962 318.391 293.9 317.605 294.826L316.451 294.147ZM282.462 320.257C283.529 319.748 284.588 319.22 285.637 318.673L286.042 319.95C284.967 320.51 283.883 321.051 282.791 321.571L282.462 320.257ZM320.824 288.596C321.511 287.654 322.179 286.7 322.828 285.736L324.14 286.207C323.475 287.195 322.791 288.172 322.087 289.137L320.824 288.596ZM276.023 323.051C277.107 322.626 278.185 322.181 279.256 321.716L279.51 323.065C278.414 323.541 277.311 323.996 276.201 324.431L276.023 323.051ZM324.705 282.827C325.305 281.856 325.886 280.874 326.446 279.884L327.846 280.211C327.272 281.226 326.678 282.231 326.062 283.226L324.705 282.827ZM269.517 325.332C270.606 324.994 271.691 324.636 272.771 324.258L272.873 325.666C271.769 326.053 270.659 326.42 269.544 326.765L269.517 325.332ZM262.995 327.089C264.086 326.839 265.173 326.568 266.257 326.276L266.209 327.731C265.101 328.029 263.989 328.307 262.874 328.562L262.995 327.089ZM328.051 276.909C328.561 275.916 329.051 274.914 329.519 273.905L330.994 274.087C330.515 275.121 330.013 276.147 329.49 277.164L328.051 276.909ZM256.524 328.316C257.601 328.155 258.677 327.972 259.75 327.769L259.556 329.257C258.459 329.465 257.359 329.652 256.258 329.817L256.524 328.316ZM330.848 270.882C331.263 269.88 331.658 268.871 332.03 267.856L333.565 267.895C333.183 268.934 332.78 269.967 332.354 270.992L330.848 270.882ZM250.133 329.018C251.194 328.944 252.254 328.849 253.313 328.733L252.977 330.242C251.895 330.361 250.813 330.458 249.729 330.534L250.133 329.018ZM333.072 264.821C333.394 263.812 333.695 262.798 333.973 261.779L335.553 261.679C335.268 262.721 334.961 263.758 334.631 264.79L333.072 264.821ZM243.884 329.202C244.92 329.214 245.957 329.204 246.994 329.174L246.524 330.693C245.465 330.724 244.407 330.734 243.349 330.722L243.884 329.202ZM334.727 258.764C334.842 258.259 334.951 257.753 335.055 257.246L336.658 257.045C336.552 257.563 336.441 258.08 336.323 258.596L334.727 258.764ZM237.813 328.885C238.814 328.979 239.817 329.052 240.822 329.105L240.224 330.622C239.199 330.569 238.176 330.494 237.155 330.399L237.813 328.885ZM231.94 328.088C232.905 328.26 233.873 328.412 234.843 328.544L234.126 330.051C233.138 329.916 232.151 329.761 231.168 329.586L231.94 328.088ZM226.292 326.833C227.223 327.081 228.156 327.309 229.093 327.517L228.267 329.005C227.313 328.793 226.363 328.561 225.416 328.308L226.292 326.833ZM219.907 331.102L216.513 324.341L225.825 322.879L223.55 326.04C223.56 326.043 223.569 326.046 223.578 326.049L222.653 327.51C222.61 327.496 222.566 327.482 222.522 327.469L219.907 331.102Z" fill="#BDBFC8"/>
<path fill-rule="evenodd" clip-rule="evenodd" d="M39.993 227.385C40.4054 228.215 40.8378 229.035 41.2898 229.844L40.0736 230.524C39.6106 229.695 39.1677 228.855 38.7453 228.004L39.993 227.385ZM42.7049 232.237C43.196 233.024 43.7064 233.798 44.2357 234.559L43.0918 235.354C42.5495 234.574 42.0266 233.781 41.5235 232.976L42.7049 232.237ZM37.7645 222.29C38.0949 223.157 38.4459 224.016 38.817 224.864L37.5406 225.422C37.1605 224.553 36.8011 223.674 36.4627 222.786L37.7645 222.29ZM45.8781 236.802C46.4433 237.535 47.027 238.255 47.6289 238.961L46.5687 239.865C45.952 239.142 45.3539 238.404 44.7747 237.652L45.8781 236.802ZM36.037 217.005C36.283 217.901 36.5499 218.789 36.8375 219.669L35.5133 220.102C35.2189 219.201 34.9455 218.291 34.6936 217.374L36.037 217.005ZM49.4848 241.033C50.119 241.706 50.7709 242.365 51.44 243.009L50.474 244.013C49.7884 243.353 49.1204 242.678 48.4705 241.987L49.4848 241.033ZM34.8208 211.578C34.9807 212.493 35.162 213.402 35.3641 214.305L34.0047 214.609C33.7978 213.685 33.6122 212.754 33.4485 211.817L34.8208 211.578ZM53.4892 244.886C54.1861 245.493 54.8996 246.085 55.6294 246.66L54.7669 247.754C54.0191 247.165 53.288 246.558 52.5739 245.936L53.4892 244.886ZM34.1219 206.06C34.1955 206.988 34.2905 207.911 34.4067 208.828L33.0247 209.003C32.9057 208.064 32.8085 207.12 32.7332 206.17L34.1219 206.06ZM57.8567 248.329C58.6087 248.865 59.3763 249.383 60.1591 249.885L59.4077 251.058C58.6058 250.544 57.8194 250.013 57.049 249.464L57.8567 248.329ZM33.9396 200.5C33.9271 201.43 33.9362 202.356 33.9663 203.279L32.5739 203.324C32.5431 202.381 32.5339 201.433 32.5466 200.482L33.9396 200.5ZM34.2678 194.943C34.1706 195.871 34.0949 196.797 34.0403 197.72L32.6497 197.638C32.7055 196.694 32.7829 195.747 32.8823 194.798L34.2678 194.943ZM62.5346 251.326C63.3355 251.786 64.1509 252.229 64.9805 252.653L64.3458 253.893C63.4962 253.459 62.6612 253.005 61.8409 252.534L62.5346 251.326ZM35.0933 189.443C34.9143 190.358 34.7564 191.271 34.6195 192.183L33.2418 191.976C33.3819 191.044 33.5432 190.11 33.7261 189.176L35.0933 189.443ZM67.4885 253.862C68.327 254.242 69.1789 254.605 70.0439 254.949L69.5291 256.243C68.6439 255.891 67.772 255.52 66.9135 255.131L67.4885 253.862ZM36.4006 184.027C36.1424 184.925 35.9051 185.823 35.6884 186.72L34.3342 186.393C34.5557 185.476 34.7981 184.559 35.0617 183.642L36.4006 184.027ZM72.6526 255.916C73.5265 256.218 74.4127 256.501 75.311 256.765L74.9175 258.102C73.9989 257.831 73.0924 257.542 72.1984 257.233L72.6526 255.916ZM38.1641 178.746C37.8309 179.62 37.5181 180.496 37.2254 181.372L35.9041 180.931C36.2029 180.036 36.5223 179.142 36.8623 178.25L38.1641 178.746ZM77.9895 257.489C78.4415 257.601 78.8964 257.708 79.3541 257.81L79.0507 259.17C78.5829 259.065 78.118 258.956 77.6559 258.842L77.9895 257.489ZM40.3562 173.629C39.9544 174.472 39.5722 175.316 39.2095 176.163L37.9291 175.614C38.2991 174.75 38.689 173.889 39.0988 173.029L40.3562 173.629ZM42.9512 168.693C42.4847 169.503 42.0373 170.316 41.6086 171.131L40.3757 170.482C40.8127 169.651 41.2687 168.823 41.7441 167.998L42.9512 168.693ZM45.9179 163.961C45.3892 164.739 44.879 165.521 44.387 166.305L43.2068 165.565C43.7078 164.766 44.2273 163.97 44.7656 163.178L45.9179 163.961ZM43.7774 158.446L51.3644 155.776L49.8829 163.681L47.536 161.669C47.5303 161.677 47.5246 161.684 47.5189 161.692L46.395 160.869C46.4218 160.832 46.4486 160.796 46.4754 160.759L43.7774 158.446Z" fill="#BDBFC8"/>
<g filter="url(#filter2_d_125_2564)">
<path d="M146.7 71.0062C146.7 107.46 117.148 137.012 80.6937 137.012C44.2395 137.012 14.6875 107.46 14.6875 71.0062C14.6875 34.552 44.2395 5 80.6937 5C117.148 5 146.7 34.552 146.7 71.0062Z" fill="white"/>
</g>
<path d="M63.8867 44.737V37.2764H58.1927L58.1383 41.625C58.1247 42.7394 57.9073 43.8537 57.4181 44.737H56.6299V48.0393H58.2199V46.1911H63.2887V48.0393H64.8787V44.737H63.8867ZM59.6332 41.7473L59.6875 38.7304H62.2967V44.737H59.008C59.4021 43.9352 59.606 42.984 59.6332 41.7473Z" fill="#202020"/>
<path d="M71.9263 44.7914C71.5458 44.7914 71.3691 44.5875 71.3691 44.2206V41.7881C71.3691 40.1709 70.3635 39.2468 68.6104 39.2468C66.8438 39.2468 65.743 40.2117 65.743 41.7337V41.8289H67.2922V41.7337C67.2922 41.0678 67.7407 40.6873 68.5697 40.6873C69.385 40.6873 69.8199 41.0678 69.8199 41.7609V42.1278L67.8766 42.3996C66.3953 42.6035 65.6887 43.2422 65.6887 44.3429C65.6887 45.5932 66.6399 46.3542 68.1484 46.3542C69.0045 46.3542 69.6976 46.096 70.1868 45.6067C70.4858 45.9872 70.975 46.1911 71.6001 46.1911H72.3883V44.7914H71.9263ZM68.2571 45.036C67.632 45.036 67.2243 44.7642 67.2243 44.3293C67.2243 43.9488 67.5504 43.677 68.1484 43.5955L69.8199 43.3509V44.2206C69.5073 44.737 68.9366 45.036 68.2571 45.036Z" fill="#202020"/>
<path d="M73.2456 46.1911H74.7812V43.4868H77.4855V46.1911H79.0348V39.4235H77.4855V42.0871H74.7812V39.4235H73.2456V46.1911Z" fill="#202020"/>
<path d="M80.611 46.1911H82.1466V43.4868H84.851V46.1911H86.4002V39.4235H84.851V42.0871H82.1466V39.4235H80.611V46.1911Z" fill="#202020"/>
<path d="M91.4282 41.625H89.5392V39.4099H88.0036V46.1911H91.4282C92.9366 46.1911 93.8471 45.2806 93.8471 43.976V43.8401C93.8471 42.5355 92.9502 41.625 91.4282 41.625ZM94.4451 39.4099V46.1911H95.9943V39.4099H94.4451ZM92.3115 43.9624C92.3115 44.4788 92.0125 44.805 91.3602 44.805H89.5392V43.0111H91.3602C92.0125 43.0111 92.3115 43.3645 92.3115 43.8537V43.9624Z" fill="#202020"/>
<path d="M103.224 43.3645V42.0191C103.224 40.3612 102.082 39.2468 100.329 39.2468C98.5628 39.2468 97.3805 40.3612 97.3805 42.0327V43.5819C97.3805 45.267 98.5628 46.3542 100.357 46.3542C102.001 46.3542 103.142 45.4437 103.224 44.0847H101.688C101.675 44.5468 101.118 44.9273 100.37 44.9273C99.4461 44.9273 98.9161 44.4109 98.9161 43.5275V43.3645H103.224ZM100.329 40.6737C101.172 40.6737 101.688 41.2173 101.688 42.0871V42.1006H98.9161V42.0871C98.9161 41.2173 99.4461 40.6737 100.329 40.6737Z" fill="#202020"/>
<path d="M340.669 152.707C342.787 152.707 344.222 151.341 344.222 149.359V146.763C344.222 144.795 342.774 143.415 340.669 143.415C338.578 143.415 337.13 144.781 337.13 146.763V149.359C337.13 151.341 338.565 152.707 340.669 152.707ZM340.669 151.231C339.439 151.231 338.729 150.535 338.729 149.305V146.845C338.729 145.601 339.439 144.891 340.669 144.891C341.899 144.891 342.623 145.601 342.623 146.845V149.305C342.623 150.494 341.872 151.231 340.669 151.231Z" fill="#202020"/>
<path d="M348.924 146.066C348.2 146.066 347.517 146.312 347.066 146.722C347.107 145.683 347.626 145.191 348.801 145.027L350.017 144.863C351.029 144.727 351.48 144.276 351.48 143.36V143.032H349.949V143.237C349.949 143.415 349.826 143.497 349.525 143.538L348.473 143.661C346.437 143.907 345.631 145.096 345.631 147.897V149.51C345.631 151.518 346.765 152.707 348.678 152.707C350.496 152.707 351.603 151.628 351.603 149.851V148.867C351.603 147.173 350.537 146.066 348.924 146.066ZM350.058 149.797C350.058 150.753 349.58 151.259 348.651 151.259C347.681 151.259 347.175 150.685 347.175 149.551V148.143C347.599 147.719 348.132 147.487 348.692 147.487C349.621 147.487 350.058 147.965 350.058 148.977V149.797Z" fill="#202020"/>
<path d="M357.406 145.724L355.656 150.617L353.825 145.724H352.24V145.957L354.864 152.653L354.809 152.803C354.604 153.391 354.303 153.459 353.88 153.459H352.787V154.866H354.017C355.205 154.866 355.861 154.361 356.271 153.254L358.991 145.957V145.724H357.406Z" fill="#202020"/>
<path d="M364.104 145.724V148.99C363.598 149.059 363.175 149.1 362.833 149.1C361.945 149.1 361.494 148.772 361.494 148.116V145.724H359.95V148.293C359.95 149.646 360.961 150.494 362.587 150.494C363.052 150.494 363.571 150.439 364.104 150.343V152.543H365.662V145.724H364.104Z" fill="#202020"/>
<path d="M372.91 149.701V148.348C372.91 146.681 371.762 145.56 369.999 145.56C368.222 145.56 367.033 146.681 367.033 148.362V149.92C367.033 151.614 368.222 152.707 370.026 152.707C371.68 152.707 372.828 151.792 372.91 150.425H371.365C371.352 150.89 370.791 151.272 370.04 151.272C369.111 151.272 368.578 150.753 368.578 149.865V149.701H372.91ZM369.999 146.995C370.846 146.995 371.365 147.542 371.365 148.416V148.43H368.578V148.416C368.578 147.542 369.111 146.995 369.999 146.995Z" fill="#202020"/>
<path d="M374.272 152.543H375.816V149.824H378.535V152.543H380.093V145.738H378.535V148.416H375.816V145.738H374.272V152.543Z" fill="#202020"/>
<path d="M381.678 152.543H383.086L385.915 148.17V152.543H387.418V145.724H386.01L383.168 150.097V145.724H381.678V152.543Z" fill="#202020"/>
<path d="M394.662 149.701V148.348C394.662 146.681 393.514 145.56 391.751 145.56C389.975 145.56 388.786 146.681 388.786 148.362V149.92C388.786 151.614 389.975 152.707 391.779 152.707C393.432 152.707 394.58 151.792 394.662 150.425H393.118C393.104 150.89 392.544 151.272 391.792 151.272C390.863 151.272 390.33 150.753 390.33 149.865V149.701H394.662ZM391.751 146.995C392.599 146.995 393.118 147.542 393.118 148.416V148.43H390.33V148.416C390.33 147.542 390.863 146.995 391.751 146.995Z" fill="#202020"/>
<g opacity="0.59" filter="url(#filter3_d_125_2564)">
<g filter="url(#filter4_i_125_2564)">
<path fill-rule="evenodd" clip-rule="evenodd" d="M102.297 65.4946L58.9453 65.4946L58.9453 101.042L58.9453 101.272L58.9506 101.272C59.2067 106.865 68.8109 111.363 80.6212 111.363C92.4315 111.363 102.036 106.865 102.292 101.272L102.297 101.272L102.297 101.042L102.297 65.4946Z" fill="url(#paint2_linear_125_2564)"/>
</g>
<path d="M102.297 65.61C102.297 70.8498 92.5925 75.0975 80.6212 75.0975C68.6499 75.0975 58.9453 70.8498 58.9453 65.61C58.9453 60.3702 68.6499 56.1226 80.6212 56.1226C92.5925 56.1226 102.297 60.3702 102.297 65.61Z" fill="url(#paint3_linear_125_2564)"/>
<path fill-rule="evenodd" clip-rule="evenodd" d="M95.733 71.9026C99.6043 70.2123 101.815 67.9549 101.815 65.5867C101.815 63.2184 99.6043 60.9611 95.733 59.2707C91.8904 57.593 86.5483 56.5432 80.6212 56.5432C74.6941 56.5432 69.352 57.593 65.5095 59.2707C61.6381 60.9611 59.427 63.2184 59.427 65.5867C59.427 67.9549 61.6381 70.2123 65.5095 71.9026C69.352 73.5803 74.6941 74.6301 80.6212 74.6301C86.5483 74.6301 91.8904 73.5803 95.733 71.9026ZM80.6212 75.0507C92.5925 75.0507 102.297 70.8135 102.297 65.5867C102.297 60.3598 92.5925 56.1226 80.6212 56.1226C68.6499 56.1226 58.9453 60.3598 58.9453 65.5867C58.9453 70.8135 68.6499 75.0507 80.6212 75.0507Z" fill="url(#paint4_linear_125_2564)"/>
</g>
<g filter="url(#filter5_d_125_2564)">
<path d="M192.426 351.994C192.426 388.448 162.874 418 126.419 418C89.9651 418 60.4131 388.448 60.4131 351.994C60.4131 315.539 89.9651 285.987 126.419 285.987C162.874 285.987 192.426 315.539 192.426 351.994Z" fill="white"/>
</g>
<g filter="url(#filter6_d_125_2564)">
<path fill-rule="evenodd" clip-rule="evenodd" d="M144.661 346.299C143.291 346.299 142.181 347.409 142.181 348.779V388.456C142.181 389.826 143.291 390.936 144.661 390.936C146.03 390.936 147.14 389.826 147.14 388.456V348.779C147.14 347.409 146.03 346.299 144.661 346.299ZM126.242 348.424C124.872 348.424 123.762 349.534 123.762 350.904V388.456C123.762 389.825 124.872 390.936 126.242 390.936C127.611 390.936 128.721 389.825 128.721 388.456V350.904C128.721 349.534 127.611 348.424 126.242 348.424ZM114.552 365.075C114.552 363.705 115.662 362.595 117.032 362.595C118.401 362.595 119.511 363.705 119.511 365.075V388.456C119.511 389.826 118.401 390.936 117.032 390.936C115.662 390.936 114.552 389.826 114.552 388.456V365.075ZM105.34 373.577C105.34 372.207 106.45 371.097 107.82 371.097C109.189 371.097 110.3 372.207 110.3 373.577V388.456C110.3 389.825 109.189 390.936 107.82 390.936C106.45 390.936 105.34 389.825 105.34 388.456V373.577ZM132.971 357.281C132.971 355.911 134.081 354.801 135.451 354.801C136.82 354.801 137.93 355.911 137.93 357.281V388.456C137.93 389.825 136.82 390.936 135.451 390.936C134.081 390.936 132.971 389.825 132.971 388.456V357.281Z" fill="url(#paint5_linear_125_2564)" fill-opacity="0.6"/>
</g>
<path d="M105.394 330.254C107.5 330.254 108.927 328.895 108.927 326.924V324.342C108.927 322.385 107.486 321.013 105.394 321.013C103.315 321.013 101.874 322.372 101.874 324.342V326.924C101.874 328.895 103.301 330.254 105.394 330.254ZM105.394 328.786C104.171 328.786 103.464 328.093 103.464 326.87V324.424C103.464 323.187 104.171 322.48 105.394 322.48C106.617 322.48 107.337 323.187 107.337 324.424V326.87C107.337 328.052 106.59 328.786 105.394 328.786Z" fill="#202020"/>
<path d="M116.144 328.691V323.309H114.595V328.691H111.958V323.309H110.423V330.09H115.573V331.871H117.109V328.691H116.144Z" fill="#202020"/>
<path d="M123.534 327.264V325.919C123.534 324.261 122.392 323.146 120.639 323.146C118.872 323.146 117.69 324.261 117.69 325.932V327.481C117.69 329.166 118.872 330.254 120.666 330.254C122.311 330.254 123.452 329.343 123.534 327.984H121.998C121.984 328.446 121.427 328.827 120.68 328.827C119.756 328.827 119.226 328.31 119.226 327.427V327.264H123.534ZM120.639 324.573C121.482 324.573 121.998 325.117 121.998 325.986V326H119.226V325.986C119.226 325.117 119.756 324.573 120.639 324.573Z" fill="#202020"/>
<path d="M124.888 330.09H126.424V327.386H129.128V330.09H130.677V323.323H129.128V325.986H126.424V323.323H124.888V330.09Z" fill="#202020"/>
<path d="M136.086 326.68L138.179 323.54V323.309H136.494L134.7 326.014H133.789V323.309H132.254V330.09H133.789V327.386H134.727L136.602 330.09H138.287V329.859L136.086 326.68Z" fill="#202020"/>
<path d="M145.028 328.691C144.648 328.691 144.471 328.487 144.471 328.12V325.687C144.471 324.07 143.465 323.146 141.712 323.146C139.946 323.146 138.845 324.111 138.845 325.633V325.728H140.394V325.633C140.394 324.967 140.842 324.587 141.671 324.587C142.487 324.587 142.922 324.967 142.922 325.66V326.027L140.978 326.299C139.497 326.503 138.79 327.142 138.79 328.242C138.79 329.493 139.742 330.254 141.25 330.254C142.106 330.254 142.799 329.995 143.289 329.506C143.588 329.887 144.077 330.09 144.702 330.09H145.49V328.691H145.028ZM141.359 328.935C140.734 328.935 140.326 328.664 140.326 328.229C140.326 327.848 140.652 327.576 141.25 327.495L142.922 327.25V328.12C142.609 328.636 142.038 328.935 141.359 328.935Z" fill="#202020"/>
<mask id="mask0_125_2564" style="mask-type:alpha" maskUnits="userSpaceOnUse" x="114" y="99" width="161" height="181">
<path d="M114.82 99.6758H274.398V279.081H114.82V99.6758Z" fill="#C4C4C4"/>
</mask>
<g mask="url(#mask0_125_2564)">
<path fill-rule="evenodd" clip-rule="evenodd" d="M206.792 146.501C198.58 139.737 186.678 139.9 178.655 146.887L124.089 194.405C123.014 195.341 122.057 196.354 121.215 197.429H116.61V212.289H116.675C117.073 218.116 119.798 223.802 124.817 227.802L182.452 273.734C190.465 280.121 201.852 280.053 209.789 273.572L265.219 228.306C270.311 224.148 272.971 218.257 273.195 212.289H273.252V197.429H268.077C267.249 196.453 266.32 195.535 265.29 194.687L206.792 146.501Z" fill="url(#paint6_linear_125_2564)"/>
<path fill-rule="evenodd" clip-rule="evenodd" d="M206.792 132.909C198.58 126.145 186.678 126.308 178.655 133.295L124.089 180.814C123.014 181.749 122.057 182.763 121.215 183.837H116.61V198.698H116.675C117.073 204.524 119.798 210.21 124.817 214.21L182.452 260.143C190.465 266.529 201.852 266.461 209.789 259.98L265.219 214.714C270.311 210.556 272.971 204.665 273.195 198.698H273.252V183.837H268.077C267.249 182.862 266.32 181.943 265.29 181.095L206.792 132.909Z" fill="url(#paint7_linear_125_2564)"/>
<path fill-rule="evenodd" clip-rule="evenodd" d="M206.792 119.318C198.58 112.554 186.678 112.717 178.655 119.704L124.089 167.223C123.014 168.158 122.057 169.172 121.215 170.247H116.61V185.107H116.675C117.073 190.933 119.798 196.619 124.817 200.619L182.452 246.552C190.465 252.938 201.852 252.87 209.789 246.389L265.219 201.124C270.311 196.965 272.971 191.074 273.195 185.107H273.252V170.247H268.077C267.249 169.271 266.32 168.352 265.29 167.504L206.792 119.318Z" fill="url(#paint8_linear_125_2564)"/>
<path d="M178.655 106.112C186.678 99.1258 198.58 98.9626 206.792 105.727L265.29 153.913C275.879 162.635 275.845 178.855 265.219 187.532L209.788 232.798C201.852 239.279 190.465 239.347 182.451 232.96L124.817 187.028C114.196 178.563 113.847 162.55 124.088 153.631L178.655 106.112Z" fill="url(#paint9_linear_125_2564)"/>
<g filter="url(#filter7_f_125_2564)">
<path d="M193.832 227.335C188.331 234.865 175.666 234.983 165.542 227.598C155.419 220.214 151.672 208.122 157.173 200.591C162.674 193.061 175.34 192.943 185.463 200.328C195.586 207.713 199.333 219.804 193.832 227.335Z" fill="#7BF1DA" fill-opacity="0.4"/>
</g>
</g>
<mask id="mask1_125_2564" style="mask-type:alpha" maskUnits="userSpaceOnUse" x="116" y="100" width="158" height="138">
<path d="M178.655 106.112C186.678 99.1258 198.58 98.9626 206.792 105.727L265.29 153.913C275.879 162.635 275.845 178.855 265.219 187.532L209.788 232.798C201.852 239.279 190.465 239.347 182.451 232.96L124.817 187.028C114.196 178.563 113.847 162.55 124.088 153.631L178.655 106.112Z" fill="url(#paint10_linear_125_2564)"/>
</mask>
<g mask="url(#mask1_125_2564)">
<path d="M174.958 133.281C185.133 124.129 200.528 123.958 210.903 132.883L273.745 186.945L210.895 238.19C202.28 245.214 189.927 245.268 181.251 238.321L116.149 186.188L174.958 133.281Z" fill="url(#paint11_linear_125_2564)"/>
<g filter="url(#filter8_f_125_2564)">
<path d="M172.527 182.825C172.527 195.726 158.262 206.184 140.664 206.184C123.066 206.184 108.801 195.726 108.801 182.825C108.801 169.924 123.066 159.466 140.664 159.466C158.262 159.466 172.527 169.924 172.527 182.825Z" fill="#7BF1DA" fill-opacity="0.6"/>
</g>
<g opacity="0.3" filter="url(#filter9_f_125_2564)">
<path d="M181.495 249.645C181.495 242.639 187.178 236.96 194.189 236.96H196.309C203.32 236.96 209.003 242.639 209.003 249.645V265.793C209.003 272.799 203.32 278.478 196.309 278.478H194.189C187.178 278.478 181.495 272.799 181.495 265.793V249.645Z" fill="url(#paint12_linear_125_2564)"/>
</g>
<g opacity="0.7" filter="url(#filter10_f_125_2564)">
<path d="M198.827 278.194V237.259H202.117L207.499 233.673L241.584 206.184V246.82L226.037 259.967L209.891 272.517L204.808 275.804L198.827 278.194Z" fill="url(#paint13_linear_125_2564)" fill-opacity="0.8"/>
</g>
</g>
<mask id="mask2_125_2564" style="mask-type:alpha" maskUnits="userSpaceOnUse" x="116" y="100" width="158" height="138">
<path d="M178.821 106.112C186.844 99.1258 198.746 98.9626 206.958 105.727L265.456 153.913C276.045 162.635 276.011 178.855 265.385 187.532L209.954 232.798C202.018 239.279 190.631 239.347 182.617 232.96L124.983 187.028C114.362 178.563 114.013 162.55 124.254 153.631L178.821 106.112Z" fill="url(#paint14_linear_125_2564)"/>
</mask>
<g mask="url(#mask2_125_2564)">
<g filter="url(#filter11_f_125_2564)">
<path d="M229.245 120.374C229.245 132.061 212.012 141.535 190.753 141.535C169.495 141.535 152.262 132.061 152.262 120.374C152.262 108.688 169.495 99.2139 190.753 99.2139C212.012 99.2139 229.245 108.688 229.245 120.374Z" fill="#7BF1DA" fill-opacity="0.5"/>
</g>
<path fill-rule="evenodd" clip-rule="evenodd" d="M272.318 171.152L272.3 170.264C272.181 164.452 269.645 158.683 264.685 154.613L205.967 106.427C198.066 99.943 186.613 100.099 178.894 106.796L124.122 154.315C119.263 158.531 116.883 164.397 116.943 170.237L116.952 171.152H116.928V211.383H116.933L116.991 212.227C117.373 217.811 119.994 223.257 124.823 227.092L182.675 273.024C190.385 279.146 201.342 279.081 208.978 272.868L264.617 227.603C269.517 223.617 272.074 217.975 272.289 212.255L272.322 211.383H272.346V171.152H272.318ZM273.206 170.246H273.253V212.289H273.195C272.971 218.256 270.301 224.147 265.19 228.306L209.551 273.571C201.584 280.052 190.154 280.12 182.111 273.734L124.259 227.801C119.221 223.801 116.485 218.115 116.086 212.289H116.021V170.246L116.036 170.246C116.035 170.096 116.035 169.946 116.036 169.796C116.097 163.853 118.583 157.921 123.528 153.631L178.3 106.112C186.353 99.1256 198.3 98.9624 206.542 105.726L265.261 153.912C270.435 158.158 273.082 164.181 273.206 170.246Z" fill="url(#paint15_linear_125_2564)"/>
<path d="M156.439 202.618C156.439 203.118 156.033 203.524 155.533 203.524C155.032 203.524 154.626 203.118 154.626 202.618C154.626 202.118 155.032 201.712 155.533 201.712C156.033 201.712 156.439 202.118 156.439 202.618Z" fill="white" fill-opacity="0.3"/>
<path d="M135.054 189.142C135.054 189.643 134.648 190.049 134.147 190.049C133.646 190.049 133.24 189.643 133.24 189.142C133.24 188.642 133.646 188.236 134.147 188.236C134.648 188.236 135.054 188.642 135.054 189.142Z" fill="white" fill-opacity="0.3"/>
<path d="M135.054 165.84C135.054 166.34 134.648 166.746 134.147 166.746C133.646 166.746 133.24 166.34 133.24 165.84C133.24 165.339 133.646 164.934 134.147 164.934C134.648 164.934 135.054 165.339 135.054 165.84Z" fill="white" fill-opacity="0.3"/>
<path d="M128.678 180.018C128.678 180.519 128.272 180.924 127.771 180.924C127.27 180.924 126.864 180.519 126.864 180.018C126.864 179.518 127.27 179.112 127.771 179.112C128.272 179.112 128.678 179.518 128.678 180.018Z" fill="white" fill-opacity="0.3"/>
<path d="M124.77 169.86C124.77 170.361 124.364 170.766 123.864 170.766C123.363 170.766 122.957 170.361 122.957 169.86C122.957 169.36 123.363 168.954 123.864 168.954C124.364 168.954 124.77 169.36 124.77 169.86Z" fill="white" fill-opacity="0.3"/>
<path d="M151.917 162.462C151.917 162.962 151.511 163.368 151.01 163.368C150.509 163.368 150.104 162.962 150.104 162.462C150.104 161.961 150.509 161.556 151.01 161.556C151.511 161.556 151.917 161.961 151.917 162.462Z" fill="white" fill-opacity="0.3"/>
<path d="M170.836 161.556C170.836 162.056 170.43 162.462 169.929 162.462C169.428 162.462 169.022 162.056 169.022 161.556C169.022 161.055 169.428 160.649 169.929 160.649C170.43 160.649 170.836 161.055 170.836 161.556Z" fill="white" fill-opacity="0.3"/>
<path d="M174.945 170.865C174.945 171.365 174.539 171.771 174.039 171.771C173.538 171.771 173.132 171.365 173.132 170.865C173.132 170.365 173.538 169.959 174.039 169.959C174.539 169.959 174.945 170.365 174.945 170.865Z" fill="white" fill-opacity="0.3"/>
<path d="M157.348 143.534C157.348 144.034 156.942 144.44 156.441 144.44C155.94 144.44 155.534 144.034 155.534 143.534C155.534 143.034 155.94 142.628 156.441 142.628C156.942 142.628 157.348 143.034 157.348 143.534Z" fill="white" fill-opacity="0.3"/>
<path d="M166.392 128.849C166.392 129.35 165.987 129.756 165.486 129.756C164.985 129.756 164.579 129.35 164.579 128.849C164.579 128.349 164.985 127.943 165.486 127.943C165.987 127.943 166.392 128.349 166.392 128.849Z" fill="white" fill-opacity="0.3"/>
<path d="M169.929 144.44C169.929 144.941 169.523 145.346 169.022 145.346C168.521 145.346 168.115 144.941 168.115 144.44C168.115 143.94 168.521 143.534 169.022 143.534C169.523 143.534 169.929 143.94 169.929 144.44Z" fill="white" fill-opacity="0.3"/>
<path d="M144.764 143.534C144.764 144.034 144.358 144.44 143.857 144.44C143.356 144.44 142.95 144.034 142.95 143.534C142.95 143.034 143.356 142.628 143.857 142.628C144.358 142.628 144.764 143.034 144.764 143.534Z" fill="white" fill-opacity="0.3"/>
<path d="M133.242 155.116C133.242 155.616 132.836 156.022 132.335 156.022C131.835 156.022 131.429 155.616 131.429 155.116C131.429 154.616 131.835 154.21 132.335 154.21C132.836 154.21 133.242 154.616 133.242 155.116Z" fill="white" fill-opacity="0.3"/>
<path d="M124.77 160.649C124.77 161.15 124.364 161.555 123.864 161.555C123.363 161.555 122.957 161.15 122.957 160.649C122.957 160.149 123.363 159.743 123.864 159.743C124.364 159.743 124.77 160.149 124.77 160.649Z" fill="white" fill-opacity="0.3"/>
<path d="M179.88 222.503C179.88 223.003 179.474 223.409 178.973 223.409C178.472 223.409 178.066 223.003 178.066 222.503C178.066 222.002 178.472 221.597 178.973 221.597C179.474 221.597 179.88 222.002 179.88 222.503Z" fill="white" fill-opacity="0.3"/>
<path d="M203.735 223.41C203.735 223.91 203.329 224.316 202.829 224.316C202.328 224.316 201.922 223.91 201.922 223.41C201.922 222.91 202.328 222.504 202.829 222.504C203.329 222.504 203.735 222.91 203.735 223.41Z" fill="white" fill-opacity="0.3"/>
<path d="M203.735 210.008C203.735 210.508 203.329 210.914 202.829 210.914C202.328 210.914 201.922 210.508 201.922 210.008C201.922 209.507 202.328 209.102 202.829 209.102C203.329 209.102 203.735 209.507 203.735 210.008Z" fill="white" fill-opacity="0.3"/>
<path d="M189.137 202.618C189.137 203.118 188.731 203.524 188.23 203.524C187.729 203.524 187.323 203.118 187.323 202.618C187.323 202.118 187.729 201.712 188.23 201.712C188.731 201.712 189.137 202.118 189.137 202.618Z" fill="white" fill-opacity="0.3"/>
<path d="M222.037 204.431C222.037 204.931 221.631 205.337 221.13 205.337C220.63 205.337 220.224 204.931 220.224 204.431C220.224 203.93 220.63 203.524 221.13 203.524C221.631 203.524 222.037 203.93 222.037 204.431Z" fill="white" fill-opacity="0.3"/>
<path d="M217.308 213.056C217.308 213.557 216.902 213.963 216.401 213.963C215.9 213.963 215.494 213.557 215.494 213.056C215.494 212.556 215.9 212.15 216.401 212.15C216.902 212.15 217.308 212.556 217.308 213.056Z" fill="white" fill-opacity="0.3"/>
<path d="M214.429 192.919C214.429 193.419 214.023 193.825 213.522 193.825C213.021 193.825 212.615 193.419 212.615 192.919C212.615 192.418 213.021 192.013 213.522 192.013C214.023 192.013 214.429 192.418 214.429 192.919Z" fill="white" fill-opacity="0.3"/>
<path d="M199.212 176.889C199.212 177.39 198.806 177.796 198.305 177.796C197.804 177.796 197.398 177.39 197.398 176.889C197.398 176.389 197.804 175.983 198.305 175.983C198.806 175.983 199.212 176.389 199.212 176.889Z" fill="white" fill-opacity="0.3"/>
<path d="M233.962 186.956C233.962 187.456 233.556 187.862 233.055 187.862C232.554 187.862 232.148 187.456 232.148 186.956C232.148 186.455 232.554 186.05 233.055 186.05C233.556 186.05 233.962 186.455 233.962 186.956Z" fill="white" fill-opacity="0.3"/>
<path d="M238.896 200.806C238.896 201.306 238.49 201.712 237.99 201.712C237.489 201.712 237.083 201.306 237.083 200.806C237.083 200.305 237.489 199.899 237.99 199.899C238.49 199.899 238.896 200.305 238.896 200.806Z" fill="white" fill-opacity="0.3"/>
<path d="M230.877 209.1C230.877 209.601 230.471 210.007 229.97 210.007C229.469 210.007 229.063 209.601 229.063 209.1C229.063 208.6 229.469 208.194 229.97 208.194C230.471 208.194 230.877 208.6 230.877 209.1Z" fill="white" fill-opacity="0.3"/>
<path d="M248.767 182.825C248.767 183.325 248.361 183.731 247.86 183.731C247.359 183.731 246.953 183.325 246.953 182.825C246.953 182.325 247.359 181.919 247.86 181.919C248.361 181.919 248.767 182.325 248.767 182.825Z" fill="white" fill-opacity="0.3"/>
<path d="M253.083 168.048C253.083 168.548 252.677 168.954 252.176 168.954C251.675 168.954 251.27 168.548 251.27 168.048C251.27 167.547 251.675 167.142 252.176 167.142C252.677 167.142 253.083 167.547 253.083 168.048Z" fill="white" fill-opacity="0.3"/>
<path d="M259.666 184.638C259.666 185.138 259.26 185.544 258.759 185.544C258.258 185.544 257.853 185.138 257.853 184.638C257.853 184.137 258.258 183.731 258.759 183.731C259.26 183.731 259.666 184.137 259.666 184.638Z" fill="white" fill-opacity="0.3"/>
<path d="M265.628 173.951C265.628 174.451 265.222 174.857 264.721 174.857C264.22 174.857 263.814 174.451 263.814 173.951C263.814 173.451 264.22 173.045 264.721 173.045C265.222 173.045 265.628 173.451 265.628 173.951Z" fill="white" fill-opacity="0.3"/>
<path d="M265.628 159.743C265.628 160.243 265.222 160.649 264.721 160.649C264.22 160.649 263.814 160.243 263.814 159.743C263.814 159.243 264.22 158.837 264.721 158.837C265.222 158.837 265.628 159.243 265.628 159.743Z" fill="white" fill-opacity="0.3"/>
<path d="M240.713 140.629C240.713 141.129 240.307 141.535 239.806 141.535C239.305 141.535 238.899 141.129 238.899 140.629C238.899 140.128 239.305 139.723 239.806 139.723C240.307 139.723 240.713 140.128 240.713 140.629Z" fill="white" fill-opacity="0.3"/>
<path d="M235.778 158.837C235.778 159.337 235.372 159.743 234.872 159.743C234.371 159.743 233.965 159.337 233.965 158.837C233.965 158.336 234.371 157.931 234.872 157.931C235.372 157.931 235.778 158.336 235.778 158.837Z" fill="white" fill-opacity="0.3"/>
<path d="M231.785 151.029C231.785 151.53 231.379 151.935 230.878 151.935C230.378 151.935 229.972 151.53 229.972 151.029C229.972 150.529 230.378 150.123 230.878 150.123C231.379 150.123 231.785 150.529 231.785 151.029Z" fill="white" fill-opacity="0.3"/>
<path d="M221.132 154.209C221.132 154.709 220.726 155.115 220.225 155.115C219.724 155.115 219.318 154.709 219.318 154.209C219.318 153.708 219.724 153.303 220.225 153.303C220.726 153.303 221.132 153.708 221.132 154.209Z" fill="white" fill-opacity="0.3"/>
<path d="M219.121 146.252C219.121 146.752 218.715 147.158 218.214 147.158C217.714 147.158 217.308 146.752 217.308 146.252C217.308 145.751 217.714 145.346 218.214 145.346C218.715 145.346 219.121 145.751 219.121 146.252Z" fill="white" fill-opacity="0.3"/>
<path d="M218.213 130.662C218.213 131.162 217.807 131.568 217.306 131.568C216.805 131.568 216.399 131.162 216.399 130.662C216.399 130.162 216.805 129.756 217.306 129.756C217.807 129.756 218.213 130.162 218.213 130.662Z" fill="white" fill-opacity="0.3"/>
<path d="M218.213 121.21C218.213 121.71 217.807 122.116 217.306 122.116C216.805 122.116 216.399 121.71 216.399 121.21C216.399 120.709 216.805 120.304 217.306 120.304C217.807 120.304 218.213 120.709 218.213 121.21Z" fill="white" fill-opacity="0.3"/>
<path d="M201.921 117.099C201.921 117.6 201.515 118.006 201.014 118.006C200.513 118.006 200.107 117.6 200.107 117.099C200.107 116.599 200.513 116.193 201.014 116.193C201.515 116.193 201.921 116.599 201.921 117.099Z" fill="white" fill-opacity="0.3"/>
<path d="M201.025 128.849C201.025 129.35 200.619 129.756 200.119 129.756C199.618 129.756 199.212 129.35 199.212 128.849C199.212 128.349 199.618 127.943 200.119 127.943C200.619 127.943 201.025 128.349 201.025 128.849Z" fill="white" fill-opacity="0.3"/>
<path d="M207.192 142.629C207.192 143.129 206.786 143.535 206.286 143.535C205.785 143.535 205.379 143.129 205.379 142.629C205.379 142.128 205.785 141.723 206.286 141.723C206.786 141.723 207.192 142.128 207.192 142.629Z" fill="white" fill-opacity="0.3"/>
<path d="M185.19 135.64C185.19 136.141 184.784 136.547 184.284 136.547C183.783 136.547 183.377 136.141 183.377 135.64C183.377 135.14 183.783 134.734 184.284 134.734C184.784 134.734 185.19 135.14 185.19 135.64Z" fill="white" fill-opacity="0.3"/>
<path d="M190.045 120.303C190.045 120.803 189.639 121.209 189.138 121.209C188.637 121.209 188.231 120.803 188.231 120.303C188.231 119.802 188.637 119.396 189.138 119.396C189.639 119.396 190.045 119.802 190.045 120.303Z" fill="white" fill-opacity="0.3"/>
<path d="M179.88 117.099C179.88 117.6 179.474 118.006 178.973 118.006C178.472 118.006 178.066 117.6 178.066 117.099C178.066 116.599 178.472 116.193 178.973 116.193C179.474 116.193 179.88 116.599 179.88 117.099Z" fill="white" fill-opacity="0.3"/>
<path d="M161.787 156.022C161.787 156.523 161.381 156.928 160.88 156.928C160.38 156.928 159.974 156.523 159.974 156.022C159.974 155.522 160.38 155.116 160.88 155.116C161.381 155.116 161.787 155.522 161.787 156.022Z" fill="white" fill-opacity="0.3"/>
<path d="M214.429 221.597C214.429 222.098 214.023 222.504 213.522 222.504C213.021 222.504 212.615 222.098 212.615 221.597C212.615 221.097 213.021 220.691 213.522 220.691C214.023 220.691 214.429 221.097 214.429 221.597Z" fill="white" fill-opacity="0.3"/>
<path d="M212.613 199.9C212.613 200.401 212.207 200.806 211.706 200.806C211.206 200.806 210.8 200.401 210.8 199.9C210.8 199.4 211.206 198.994 211.706 198.994C212.207 198.994 212.613 199.4 212.613 199.9Z" fill="white" fill-opacity="0.3"/>
<path d="M230.877 194.73C230.877 195.231 230.471 195.636 229.97 195.636C229.469 195.636 229.063 195.231 229.063 194.73C229.063 194.23 229.469 193.824 229.97 193.824C230.471 193.824 230.877 194.23 230.877 194.73Z" fill="white" fill-opacity="0.3"/>
<path d="M240.713 176.889C240.713 177.39 240.307 177.796 239.806 177.796C239.305 177.796 238.899 177.39 238.899 176.889C238.899 176.389 239.305 175.983 239.806 175.983C240.307 175.983 240.713 176.389 240.713 176.889Z" fill="white" fill-opacity="0.3"/>
<path fill-rule="evenodd" clip-rule="evenodd" d="M178.313 116.204L189.298 120.595L200.778 116.498L218.53 120.722V146.077L221.035 153.586L229.955 150.486L239.825 139.993L265.003 159.284V174.206L259.607 184.784L258.8 184.372L263.94 174.296L252.828 168.653L258.601 184.422L257.75 184.734L252.094 169.285L248.729 183.109L238.11 200.587L230.663 202.56V210.616L220.424 205.055L213.752 193.816L212.282 200.613L189.029 202.996L202.407 213.263V209.288L217.223 212.603L213.785 223.139L203.314 215.102V224.099L178.832 222.834L155.298 203.029L133.652 189.638L127.192 180.059L123.315 169.513L132.843 166.016L122.993 160.994L132.444 154.844L143.644 142.615H156.623L168.364 144.179L165.245 128.386L183.872 135.341L178.313 116.204ZM183.477 136.161L166.449 129.802L169.256 144.015L183.477 136.161ZM168.549 145.956L169.448 161.399L161.542 155.114L168.549 145.956ZM161.059 154.254L157.269 143.615L168.096 145.057L161.059 154.254ZM156.273 143.521H144.51L151.655 161.661L160.373 155.032L156.273 143.521ZM151.865 162.64L149.623 174.404L169.172 162.338L160.905 155.766L151.865 162.64ZM170.406 162.255L174.763 170.093L149.203 175.746L134.717 189.231L155.694 202.209H187.826L211.535 199.779L213.354 191.369L220.836 203.973L230.663 193.725V201.622L237.22 199.885L232.375 186.771L239.544 176.656L251.744 167.357L263.767 159.479L240.146 141.381L235.461 160.108L220.389 154.514L217.724 146.525L206.228 143.447L200.351 129.184V117.613L189.28 121.564L179.701 117.735L185.095 136.302L169.4 144.97L170.406 162.255ZM201.257 117.543V129.004L206.717 142.255L217.624 130.966V121.438L201.257 117.543ZM217.624 132.271L207.422 142.829L217.624 145.56V132.271ZM239.012 142.18L234.978 158.304L230.769 150.943L239.012 142.18ZM230.003 151.429L222.09 154.179L234.131 158.648L230.003 151.429ZM264.097 160.346L252.909 167.678L264.097 173.359V160.346ZM251.263 168.863L240.64 176.961L248.022 182.179L251.263 168.863ZM247.24 182.736L239.982 177.606L233.963 186.097L247.24 182.736ZM233.482 187.154L247.343 183.645L237.918 199.158L233.482 187.154ZM229.756 201.862V195.98L222.195 203.865L229.756 201.862ZM221.968 204.863L229.756 209.092V202.8L221.968 204.863ZM187.149 203.115H156.807L178.839 221.656L187.149 203.115ZM179.691 221.971L202.407 223.145V214.406L188.028 203.37L179.691 221.971ZM134.053 188.611L147.481 176.112L128.351 180.156L134.053 188.611ZM128.39 179.221L148.596 174.95L150.936 162.671L133.274 155.883L134.438 166.158L128.39 179.221ZM133.523 155.008L150.653 161.592L143.688 143.909L133.523 155.008ZM132.371 155.972L133.428 165.297L124.801 160.898L132.371 155.972ZM133.103 166.886L127.647 178.669L124.479 170.051L133.103 166.886ZM151.501 174.31L169.794 163.019L173.38 169.471L151.501 174.31ZM203.314 213.959L213.321 221.64L216.052 213.27L203.314 210.42V213.959ZM203.474 158.88L198.976 177.982L187.057 163.15L203.474 158.88ZM188.641 163.674L198.519 175.967L202.247 160.135L188.641 163.674Z" fill="white" fill-opacity="0.12"/>
</g>
<path fill-rule="evenodd" clip-rule="evenodd" d="M169.955 164.175L165.898 168.016L171.202 179.722C174.119 186.16 176.312 191.621 176.076 191.857C175.84 192.094 171.129 188.858 165.607 184.666L155.568 177.044L151.4 180.818C149.108 182.895 147.443 184.83 147.7 185.117C147.957 185.405 156.326 191.595 166.297 198.872L184.425 212.104L188.375 208.815C190.548 207.007 192.333 205.007 192.343 204.373C192.353 203.737 190.748 199.487 188.778 194.927C186.807 190.366 184.531 185.089 183.721 183.201C182.562 180.502 182.534 179.994 183.584 180.829C193.688 188.867 202.367 195.087 203.478 195.087C204.926 195.087 211.885 188.443 211.138 187.773C208.179 185.12 175.273 160.293 174.739 160.311C174.339 160.324 172.186 162.064 169.955 164.175Z" fill="white" fill-opacity="0.4"/>
<path d="M200.671 135.537L204.999 131.184C207.379 128.79 209.664 126.948 210.075 127.092C211.077 127.44 247.351 156.869 247.351 157.333C247.351 157.533 245.303 159.354 242.801 161.379L238.25 165.059L228.123 156.885C222.552 152.389 217.995 149.144 217.995 149.675C217.995 150.204 220.083 155.966 222.636 162.479L227.278 174.32L223.013 178.067C220.666 180.128 218.463 181.812 218.117 181.809C217.149 181.799 181.083 153.982 180.902 153.106C180.815 152.682 182.66 150.671 185 148.637L189.255 144.941L199.829 153.291C205.645 157.884 210.524 161.527 210.672 161.386C210.821 161.245 208.631 155.372 205.807 148.333L200.671 135.537Z" fill="white" fill-opacity="0.4"/>
<path d="M170.229 164.464L170.229 164.464C171.338 163.414 172.426 162.458 173.284 161.765C173.713 161.419 174.08 161.142 174.359 160.953C174.5 160.858 174.611 160.79 174.694 160.746C174.699 160.744 174.703 160.742 174.708 160.739C174.775 160.781 174.866 160.84 174.982 160.917C175.248 161.095 175.627 161.36 176.104 161.7C177.058 162.381 178.397 163.358 179.999 164.541C183.204 166.906 187.459 170.09 191.79 173.357C200.293 179.773 209.058 186.488 210.778 187.985C210.767 188.015 210.751 188.054 210.726 188.103C210.623 188.311 210.428 188.599 210.148 188.951C209.594 189.648 208.763 190.528 207.856 191.394C206.951 192.258 205.981 193.099 205.152 193.72C204.737 194.032 204.365 194.282 204.06 194.453C203.907 194.539 203.777 194.6 203.671 194.64C203.561 194.681 203.5 194.689 203.478 194.689C203.479 194.689 203.478 194.689 203.477 194.689C203.468 194.688 203.421 194.68 203.322 194.643C203.214 194.603 203.074 194.539 202.9 194.45C202.551 194.272 202.093 194.005 201.533 193.653C200.415 192.95 198.918 191.927 197.135 190.649C193.57 188.095 188.88 184.534 183.832 180.518L183.831 180.518C183.694 180.409 183.567 180.315 183.451 180.243C183.342 180.176 183.215 180.108 183.084 180.08C182.946 180.049 182.713 180.05 182.55 180.252C182.424 180.41 182.421 180.603 182.427 180.713C182.441 180.957 182.541 181.298 182.689 181.709C182.842 182.135 183.065 182.681 183.356 183.358C184.166 185.246 186.443 190.524 188.413 195.084C189.396 197.36 190.287 199.557 190.931 201.262C191.253 202.115 191.512 202.842 191.689 203.392C191.777 203.667 191.844 203.894 191.888 204.069C191.91 204.156 191.925 204.226 191.934 204.28C191.939 204.307 191.942 204.328 191.944 204.344C191.945 204.361 191.945 204.367 191.945 204.367C191.945 204.365 191.942 204.407 191.897 204.507C191.854 204.6 191.787 204.718 191.693 204.86C191.505 205.144 191.226 205.494 190.873 205.889C190.169 206.678 189.194 207.616 188.12 208.51L188.12 208.51L184.409 211.6L166.531 198.551C161.546 194.913 156.962 191.547 153.592 189.054C151.907 187.808 150.526 186.78 149.551 186.047C149.063 185.68 148.678 185.387 148.407 185.178C148.285 185.084 148.188 185.007 148.115 184.949C148.133 184.915 148.156 184.873 148.186 184.824C148.326 184.596 148.565 184.282 148.896 183.898C149.553 183.134 150.53 182.144 151.667 181.113L155.59 177.56L165.367 184.983L165.607 184.666L165.367 184.983C168.131 187.082 170.695 188.942 172.599 190.25C173.55 190.904 174.341 191.422 174.913 191.764C175.197 191.934 175.437 192.067 175.62 192.15C175.709 192.19 175.801 192.228 175.887 192.248C175.929 192.258 175.99 192.27 176.058 192.267C176.121 192.264 176.25 192.246 176.357 192.138C176.454 192.042 176.477 191.928 176.484 191.88C176.493 191.822 176.492 191.767 176.489 191.725C176.483 191.639 176.464 191.541 176.441 191.442C176.394 191.238 176.311 190.966 176.201 190.64C175.979 189.983 175.633 189.069 175.19 187.967C174.304 185.761 173.024 182.78 171.564 179.558L171.564 179.558L166.377 168.11L170.229 164.464ZM148.07 185.056C148.069 185.063 148.068 185.068 148.068 185.068C148.067 185.068 148.068 185.065 148.07 185.056ZM176.073 191.475C176.073 191.475 176.073 191.475 176.073 191.475L176.073 191.475Z" stroke="white" stroke-opacity="0.5" stroke-width="0.795034"/>
<path d="M238.25 165.059L228.123 156.885M238.25 165.059L242.801 161.379M238.25 165.059L237.833 164.544L238.249 164.207M238.25 165.059L238.666 164.544L238.249 164.207M228.123 156.885L210.075 127.092C211.077 127.44 247.351 156.869 247.351 157.333C247.351 157.533 245.303 159.354 242.801 161.379M228.123 156.885C223.876 153.457 220.218 150.757 218.719 149.902M228.123 156.885L218.719 149.902M242.801 161.379L242.384 160.864M242.801 161.379L242.384 160.863C243.63 159.856 244.759 158.901 245.574 158.177C245.939 157.852 246.236 157.578 246.451 157.369M242.384 160.864L209.857 127.718C209.857 127.718 209.857 127.718 209.856 127.717C209.857 127.718 209.857 127.718 209.857 127.718C209.973 127.758 210.061 127.745 210.077 127.743C210.089 127.741 210.095 127.739 210.095 127.739C210.095 127.739 210.089 127.741 210.075 127.746C210.048 127.756 210.01 127.774 209.961 127.8M242.384 160.864L238.249 164.207M242.384 160.864L218.63 149.852M246.451 157.369C246.467 157.383 246.483 157.398 246.498 157.412C246.629 157.53 246.72 157.616 246.776 157.673C246.8 157.697 246.811 157.709 246.813 157.711C246.814 157.712 246.814 157.712 246.813 157.712C246.812 157.71 246.809 157.706 246.804 157.699C246.801 157.696 246.798 157.691 246.794 157.685C246.79 157.679 246.785 157.673 246.78 157.665C246.771 157.65 246.753 157.619 246.736 157.577C246.722 157.543 246.688 157.454 246.688 157.333C246.688 157.212 246.724 157.125 246.735 157.099C246.749 157.064 246.763 157.042 246.767 157.037C246.774 157.025 246.772 157.03 246.75 157.057C246.708 157.107 246.635 157.186 246.524 157.296C246.501 157.319 246.476 157.343 246.451 157.369ZM246.451 157.369C246.193 157.137 245.826 156.817 245.36 156.418C244.37 155.572 242.952 154.385 241.245 152.971C237.831 150.143 233.267 146.412 228.671 142.683C224.075 138.955 219.449 135.23 215.909 132.417C214.139 131.01 212.643 129.833 211.559 128.997C211.017 128.578 210.581 128.248 210.267 128.018C210.143 127.928 210.042 127.855 209.961 127.8M209.961 127.8C209.915 127.824 209.857 127.857 209.789 127.898C209.515 128.067 209.141 128.339 208.691 128.702C207.794 129.425 206.646 130.467 205.469 131.651L205.469 131.651L201.449 135.695M209.961 127.8C209.939 127.784 209.919 127.77 209.9 127.758C209.856 127.728 209.826 127.709 209.808 127.699C209.805 127.696 209.802 127.695 209.8 127.694M201.449 135.695L209.856 127.717C209.828 127.708 209.809 127.698 209.8 127.694M201.449 135.695L206.422 148.087L206.422 148.087C207.835 151.609 209.091 154.842 209.975 157.215C210.417 158.4 210.768 159.375 211 160.066C211.115 160.409 211.204 160.692 211.261 160.899C211.288 161 211.312 161.1 211.327 161.187C211.333 161.227 211.342 161.291 211.341 161.362C211.341 161.396 211.339 161.457 211.321 161.529C211.307 161.589 211.264 161.737 211.127 161.867M201.449 135.695L210.672 161.386M209.8 127.694C209.796 127.692 209.795 127.691 209.795 127.691C209.795 127.691 209.797 127.692 209.8 127.694ZM211.127 161.867L210.672 161.386M211.127 161.867C211.128 161.866 211.128 161.866 211.129 161.865L210.672 161.386M211.127 161.867C210.975 162.011 210.802 162.043 210.714 162.05C210.622 162.057 210.547 162.045 210.507 162.036C210.426 162.019 210.359 161.991 210.321 161.974C210.238 161.937 210.148 161.887 210.062 161.835C209.884 161.729 209.644 161.57 209.356 161.371C208.777 160.971 207.964 160.38 206.98 159.644C205.008 158.173 202.33 156.11 199.419 153.811M210.672 161.386C210.643 161.413 210.441 161.3 210.091 161.069C210.055 161.135 210.039 161.192 210.033 161.221C210.018 161.283 210.017 161.331 210.016 161.35C210.016 161.375 210.018 161.392 210.019 161.399C210.016 161.381 210.006 161.334 209.982 161.247C209.959 161.163 209.928 161.059 209.889 160.933C208.268 159.83 204.329 156.845 199.829 153.291M199.419 153.811L199.419 153.811L199.829 153.291M199.419 153.811L189.275 145.801M199.419 153.811L199.829 153.291M199.829 153.291L189.255 144.941M210.449 160.512C209.828 158.609 208.011 153.826 205.807 148.333L210.449 160.512ZM210.449 160.512C210.568 160.59 210.666 160.652 210.742 160.698C210.776 160.719 210.803 160.734 210.825 160.746C210.835 160.751 210.843 160.755 210.849 160.758C210.855 160.762 210.858 160.763 210.858 160.763L210.854 160.761C210.852 160.76 210.848 160.759 210.842 160.757C210.833 160.753 210.812 160.746 210.781 160.74C210.755 160.734 210.692 160.722 210.609 160.729C210.586 160.731 210.557 160.734 210.523 160.742L210.449 160.512ZM218.63 149.852C218.488 149.773 218.368 149.714 218.272 149.675C218.091 149.6 217.995 149.598 217.995 149.675C217.995 149.756 218.044 149.962 218.137 150.275C218.134 150.276 218.131 150.276 218.128 150.276C218.056 150.285 218.002 150.277 217.979 150.272M218.63 149.852C218.651 149.785 218.657 149.723 218.657 149.675C218.657 149.653 218.656 149.64 218.656 149.64C218.656 149.64 218.658 149.656 218.666 149.693C218.677 149.743 218.694 149.812 218.719 149.902M218.63 149.852L218.719 149.902M217.979 150.272C217.971 150.269 217.967 150.268 217.967 150.269C217.967 150.269 217.971 150.27 217.979 150.272ZM217.979 150.272C217.981 150.272 217.983 150.273 217.985 150.274C218.021 150.286 218.079 150.311 218.161 150.353C218.702 152.142 220.508 157.05 222.636 162.479L227.278 174.32M227.278 174.32L226.841 173.822L226.492 174.129M227.278 174.32L226.662 174.562L226.492 174.129M227.278 174.32L223.013 178.067M226.492 174.129L222.019 162.721L222.019 162.721C220.741 159.46 219.579 156.386 218.735 154.059C218.314 152.896 217.97 151.915 217.731 151.19C217.612 150.828 217.517 150.523 217.452 150.289C217.419 150.172 217.391 150.066 217.371 149.975C217.355 149.9 217.332 149.786 217.332 149.675C217.332 149.538 217.371 149.344 217.527 149.18C217.676 149.023 217.854 148.975 217.966 148.961C218.161 148.937 218.336 148.993 218.417 149.021C218.618 149.091 218.865 149.22 219.127 149.373C219.668 149.688 220.432 150.199 221.354 150.855C223.204 152.172 225.747 154.116 228.539 156.369L228.539 156.369L238.249 164.207M226.492 174.129L222.575 177.57L223.013 178.067M223.013 178.067L222.575 177.57C221.411 178.592 220.285 179.518 219.412 180.186C218.975 180.52 218.609 180.783 218.337 180.96C218.259 181.011 218.192 181.052 218.136 181.085M223.013 178.067C220.666 180.128 218.463 181.812 218.117 181.809M218.117 181.809L218.124 181.146C218.203 181.147 218.259 181.163 218.274 181.168C218.285 181.171 218.293 181.174 218.297 181.175L218.304 181.178C218.304 181.178 218.304 181.178 218.302 181.177L218.3 181.176L218.288 181.17C218.277 181.165 218.262 181.157 218.244 181.147C218.214 181.131 218.178 181.11 218.136 181.085M218.117 181.809L218.123 181.146C218.069 181.146 218.03 181.153 218.013 181.157C217.994 181.161 217.983 181.165 217.982 181.166L217.982 181.165C217.983 181.165 217.998 181.159 218.03 181.143C218.06 181.128 218.095 181.109 218.136 181.085M218.117 181.809C217.149 181.799 181.083 153.982 180.902 153.106M218.136 181.085C218.072 181.046 217.994 180.997 217.901 180.938C217.595 180.741 217.167 180.448 216.63 180.068C215.558 179.309 214.074 178.222 212.315 176.912C208.799 174.292 204.197 170.789 199.619 167.257C195.041 163.726 190.488 160.169 187.07 157.441C185.361 156.077 183.939 154.922 182.94 154.083C182.439 153.663 182.051 153.327 181.787 153.085C181.743 153.044 181.702 153.006 181.667 152.972M181.667 152.972C181.61 153.057 181.576 153.118 181.557 153.157C181.554 153.163 181.552 153.169 181.55 153.174M181.667 152.972C181.682 152.949 181.699 152.923 181.718 152.896C181.892 152.65 182.166 152.319 182.529 151.923C183.251 151.135 184.279 150.142 185.435 149.137M181.667 152.972C181.596 152.905 181.543 152.852 181.505 152.812C181.478 152.783 181.467 152.77 181.466 152.768C181.466 152.768 181.466 152.768 181.466 152.768C181.466 152.768 181.476 152.781 181.489 152.804C181.498 152.819 181.532 152.881 181.551 152.973L180.902 153.106M180.902 153.106L181.551 152.973C181.571 153.07 181.558 153.143 181.55 153.174M180.902 153.106C180.815 152.682 182.66 150.671 185 148.637M181.55 153.174C181.545 153.185 181.544 153.19 181.544 153.19C181.545 153.19 181.547 153.184 181.55 153.174ZM185.435 149.137L185.435 149.137L185 148.637M185.435 149.137L185 148.637M185.435 149.137L189.275 145.801M185 148.637L189.255 144.941M189.275 145.801L188.844 145.461L189.255 144.941M189.275 145.801L189.689 145.441L189.255 144.941" stroke="white" stroke-opacity="0.5" stroke-width="1.32506"/>
<circle cx="148.163" cy="185.229" r="1.46584" fill="white"/>
<circle cx="184.321" cy="211.614" r="1.46584" fill="white"/>
<circle cx="192.138" cy="204.773" r="1.46584" fill="white"/>
<circle cx="176.504" cy="192.069" r="1.46584" fill="white"/>
<circle cx="182.365" cy="180.343" r="1.46584" fill="white"/>
<circle cx="210.706" cy="161.775" r="1.46584" fill="white"/>
<circle cx="217.547" cy="149.071" r="1.46584" fill="white"/>
<circle cx="202.888" cy="195.001" r="1.46584" fill="white"/>
<circle cx="210.706" cy="188.16" r="1.46584" fill="white"/>
<circle cx="155.982" cy="177.411" r="1.46584" fill="white"/>
<circle cx="165.753" cy="168.616" r="1.46584" fill="white"/>
<circle cx="174.549" cy="160.798" r="1.46584" fill="white"/>
<circle cx="181.389" cy="152.98" r="1.46584" fill="white"/>
<circle cx="217.547" cy="181.319" r="1.46584" fill="white"/>
<circle cx="227.318" cy="173.501" r="1.46584" fill="white"/>
<circle cx="238.067" cy="164.706" r="1.46584" fill="white"/>
<circle cx="246.864" cy="156.89" r="1.46584" fill="white"/>
<circle cx="189.208" cy="145.163" r="1.46584" fill="white"/>
<circle cx="201.911" cy="135.39" r="1.46584" fill="white"/>
<circle cx="209.73" cy="127.572" r="1.46584" fill="white"/>
<path d="M263.594 69.5306L264.111 68.6742L263.594 69.5306ZM303.051 114.887L301.702 103.419L292.445 110.32L303.051 114.887ZM160.683 70.2378C161.095 69.8257 161.549 69.4181 162.045 69.0159L160.786 67.4623C160.241 67.9042 159.734 68.358 159.268 68.8236L160.683 70.2378ZM165.101 66.9139C166.12 66.31 167.233 65.7269 168.434 65.1675L167.59 63.3545C166.336 63.9384 165.163 64.5519 164.081 65.1935L165.101 66.9139ZM171.943 63.6946C173.088 63.2603 174.29 62.8455 175.542 62.4517L174.943 60.5438C173.656 60.9483 172.418 61.3756 171.234 61.8244L171.943 63.6946ZM179.211 61.3967C180.418 61.0799 181.661 60.7813 182.937 60.502L182.51 58.5482C181.207 58.8332 179.937 59.1382 178.703 59.4622L179.211 61.3967ZM186.702 59.7514C187.941 59.5275 189.205 59.3211 190.491 59.1328L190.202 57.1539C188.894 57.3453 187.608 57.5553 186.346 57.7833L186.702 59.7514ZM194.294 58.637C195.551 58.4927 196.825 58.3655 198.114 58.2559L197.945 56.2631C196.636 56.3743 195.343 56.5035 194.066 56.65L194.294 58.637ZM201.945 57.9852C203.214 57.9135 204.494 57.8589 205.784 57.8219L205.726 55.8227C204.419 55.8603 203.12 55.9157 201.833 55.9884L201.945 57.9852ZM209.626 57.7643C210.901 57.7626 212.183 57.7783 213.469 57.8119L213.521 55.8126C212.216 55.7785 210.917 55.7626 209.623 55.7643L209.626 57.7643ZM217.308 57.9652C218.584 58.0339 219.862 58.1205 221.141 58.2256L221.305 56.2323C220.007 56.1257 218.71 56.0378 217.415 55.9681L217.308 57.9652ZM224.964 58.5953C226.237 58.7371 227.507 58.8977 228.774 59.0776L229.055 57.0975C227.768 56.9147 226.478 56.7516 225.186 56.6076L224.964 58.5953ZM232.566 59.6764C233.828 59.8964 235.085 60.1363 236.334 60.3966L236.742 58.4387C235.471 58.1737 234.193 57.9297 232.909 57.7061L232.566 59.6764ZM240.074 61.2439C241.32 61.5494 242.556 61.8763 243.779 62.2251L244.328 60.3017C243.08 59.9459 241.82 59.6127 240.551 59.3015L240.074 61.2439ZM247.441 63.3476C248.66 63.7483 249.863 64.1722 251.05 64.6199L251.756 62.7486C250.541 62.2905 249.311 61.857 248.066 61.4477L247.441 63.3476ZM254.595 66.0512C255.772 66.559 256.929 67.0922 258.063 67.6512L258.947 65.8574C257.782 65.2828 256.594 64.7356 255.387 64.2148L254.595 66.0512ZM261.437 69.4301C261.99 69.7422 262.537 70.0611 263.078 70.387L264.111 68.6742C263.553 68.3381 262.989 68.0093 262.419 67.6878L261.437 69.4301ZM263.078 70.387C263.615 70.711 264.147 71.0412 264.672 71.377L265.749 69.6919C265.209 69.3468 264.663 69.0075 264.111 68.6742L263.078 70.387ZM267.777 73.4749C268.803 74.2062 269.804 74.958 270.78 75.727L272.017 74.156C271.017 73.3679 269.991 72.5968 268.938 71.8463L267.777 73.4749ZM273.672 78.1152C274.628 78.9416 275.559 79.7827 276.463 80.6348L277.834 79.179C276.91 78.3081 275.959 77.4478 274.98 76.602L273.672 78.1152ZM279.144 83.2655C280.032 84.1725 280.893 85.0874 281.727 86.0058L283.208 84.6617C282.358 83.7253 281.48 82.792 280.573 81.8661L279.144 83.2655ZM284.203 88.8347C285.028 89.811 285.822 90.7865 286.587 91.7562L288.157 90.5172C287.379 89.531 286.57 88.5383 285.731 87.544L284.203 88.8347ZM288.875 94.7515C289.641 95.7872 290.373 96.8097 291.071 97.8125L292.713 96.6701C292.004 95.6524 291.261 94.6143 290.483 93.5621L288.875 94.7515ZM293.182 100.935C293.905 102.034 294.583 103.098 295.218 104.116L296.915 103.058C296.272 102.027 295.586 100.95 294.854 99.837L293.182 100.935ZM297.191 107.352C297.902 108.542 298.54 109.634 299.11 110.609L300.837 109.6C300.267 108.625 299.624 107.525 298.908 106.326L297.191 107.352Z" fill="#BDBFC8"/>
<defs>
<filter id="filter0_d_125_2564" x="281.874" y="106.353" width="161.828" height="161.828" filterUnits="userSpaceOnUse" color-interpolation-filters="sRGB">
<feFlood flood-opacity="0" result="BackgroundImageFix"/>
<feColorMatrix in="SourceAlpha" type="matrix" values="0 0 0 0 0 0 0 0 0 0 0 0 0 0 0 0 0 0 127 0" result="hardAlpha"/>
<feOffset dy="9.69272"/>
<feGaussianBlur stdDeviation="7.26954"/>
<feColorMatrix type="matrix" values="0 0 0 0 0 0 0 0 0 0 0 0 0 0 0 0 0 0 0.1 0"/>
<feBlend mode="normal" in2="BackgroundImageFix" result="effect1_dropShadow_125_2564"/>
<feBlend mode="normal" in="SourceGraphic" in2="effect1_dropShadow_125_2564" result="shape"/>
</filter>
<filter id="filter1_d_125_2564" x="330.913" y="166.953" width="68.4585" height="53.5449" filterUnits="userSpaceOnUse" color-interpolation-filters="sRGB">
<feFlood flood-opacity="0" result="BackgroundImageFix"/>
<feColorMatrix in="SourceAlpha" type="matrix" values="0 0 0 0 0 0 0 0 0 0 0 0 0 0 0 0 0 0 127 0" result="hardAlpha"/>
<feOffset dx="1" dy="2"/>
<feGaussianBlur stdDeviation="2"/>
<feColorMatrix type="matrix" values="0 0 0 0 0 0 0 0 0 0 0 0 0 0 0 0 0 0 0.18 0"/>
<feBlend mode="normal" in2="BackgroundImageFix" result="effect1_dropShadow_125_2564"/>
<feBlend mode="normal" in="SourceGraphic" in2="effect1_dropShadow_125_2564" result="shape"/>
</filter>
<filter id="filter2_d_125_2564" x="0.503017" y="0.271839" width="160.382" height="160.382" filterUnits="userSpaceOnUse" color-interpolation-filters="sRGB">
<feFlood flood-opacity="0" result="BackgroundImageFix"/>
<feColorMatrix in="SourceAlpha" type="matrix" values="0 0 0 0 0 0 0 0 0 0 0 0 0 0 0 0 0 0 127 0" result="hardAlpha"/>
<feOffset dy="9.45632"/>
<feGaussianBlur stdDeviation="7.09224"/>
<feColorMatrix type="matrix" values="0 0 0 0 0 0 0 0 0 0 0 0 0 0 0 0 0 0 0.1 0"/>
<feBlend mode="normal" in2="BackgroundImageFix" result="effect1_dropShadow_125_2564"/>
<feBlend mode="normal" in="SourceGraphic" in2="effect1_dropShadow_125_2564" result="shape"/>
</filter>
<filter id="filter3_d_125_2564" x="54.9968" y="53.4902" width="53.881" height="65.7696" filterUnits="userSpaceOnUse" color-interpolation-filters="sRGB">
<feFlood flood-opacity="0" result="BackgroundImageFix"/>
<feColorMatrix in="SourceAlpha" type="matrix" values="0 0 0 0 0 0 0 0 0 0 0 0 0 0 0 0 0 0 127 0" result="hardAlpha"/>
<feOffset dx="1.31618" dy="2.63235"/>
<feGaussianBlur stdDeviation="2.63235"/>
<feColorMatrix type="matrix" values="0 0 0 0 0 0 0 0 0 0 0 0 0 0 0 0 0 0 0.18 0"/>
<feBlend mode="normal" in2="BackgroundImageFix" result="effect1_dropShadow_125_2564"/>
<feBlend mode="normal" in="SourceGraphic" in2="effect1_dropShadow_125_2564" result="shape"/>
</filter>
<filter id="filter4_i_125_2564" x="58.9453" y="65.4946" width="43.3516" height="49.6507" filterUnits="userSpaceOnUse" color-interpolation-filters="sRGB">
<feFlood flood-opacity="0" result="BackgroundImageFix"/>
<feBlend mode="normal" in="SourceGraphic" in2="BackgroundImageFix" result="shape"/>
<feColorMatrix in="SourceAlpha" type="matrix" values="0 0 0 0 0 0 0 0 0 0 0 0 0 0 0 0 0 0 127 0" result="hardAlpha"/>
<feOffset dy="3.78253"/>
<feGaussianBlur stdDeviation="1.89126"/>
<feComposite in2="hardAlpha" operator="arithmetic" k2="-1" k3="1"/>
<feColorMatrix type="matrix" values="0 0 0 0 0.5875 0 0 0 0 0.62875 0 0 0 0 1 0 0 0 1 0"/>
<feBlend mode="normal" in2="shape" result="effect1_innerShadow_125_2564"/>
</filter>
<filter id="filter5_d_125_2564" x="46.1764" y="281.242" width="160.486" height="160.486" filterUnits="userSpaceOnUse" color-interpolation-filters="sRGB">
<feFlood flood-opacity="0" result="BackgroundImageFix"/>
<feColorMatrix in="SourceAlpha" type="matrix" values="0 0 0 0 0 0 0 0 0 0 0 0 0 0 0 0 0 0 127 0" result="hardAlpha"/>
<feOffset dy="9.49112"/>
<feGaussianBlur stdDeviation="7.11834"/>
<feColorMatrix type="matrix" values="0 0 0 0 0 0 0 0 0 0 0 0 0 0 0 0 0 0 0.1 0"/>
<feBlend mode="normal" in2="BackgroundImageFix" result="effect1_dropShadow_125_2564"/>
<feBlend mode="normal" in="SourceGraphic" in2="effect1_dropShadow_125_2564" result="shape"/>
</filter>
<filter id="filter6_d_125_2564" x="101.391" y="343.666" width="52.3297" height="55.1671" filterUnits="userSpaceOnUse" color-interpolation-filters="sRGB">
<feFlood flood-opacity="0" result="BackgroundImageFix"/>
<feColorMatrix in="SourceAlpha" type="matrix" values="0 0 0 0 0 0 0 0 0 0 0 0 0 0 0 0 0 0 127 0" result="hardAlpha"/>
<feOffset dx="1.31618" dy="2.63235"/>
<feGaussianBlur stdDeviation="2.63235"/>
<feColorMatrix type="matrix" values="0 0 0 0 0 0 0 0 0 0 0 0 0 0 0 0 0 0 0.18 0"/>
<feBlend mode="normal" in2="BackgroundImageFix" result="effect1_dropShadow_125_2564"/>
<feBlend mode="normal" in="SourceGraphic" in2="effect1_dropShadow_125_2564" result="shape"/>
</filter>
<filter id="filter7_f_125_2564" x="128.137" y="168.364" width="94.7318" height="91.1976" filterUnits="userSpaceOnUse" color-interpolation-filters="sRGB">
<feFlood flood-opacity="0" result="BackgroundImageFix"/>
<feBlend mode="normal" in="SourceGraphic" in2="BackgroundImageFix" result="shape"/>
<feGaussianBlur stdDeviation="13.2506" result="effect1_foregroundBlur_125_2564"/>
</filter>
<filter id="filter8_f_125_2564" x="55.7985" y="106.464" width="169.731" height="152.722" filterUnits="userSpaceOnUse" color-interpolation-filters="sRGB">
<feFlood flood-opacity="0" result="BackgroundImageFix"/>
<feBlend mode="normal" in="SourceGraphic" in2="BackgroundImageFix" result="shape"/>
<feGaussianBlur stdDeviation="26.5011" result="effect1_foregroundBlur_125_2564"/>
</filter>
<filter id="filter9_f_125_2564" x="172.22" y="227.685" width="46.0586" height="60.0694" filterUnits="userSpaceOnUse" color-interpolation-filters="sRGB">
<feFlood flood-opacity="0" result="BackgroundImageFix"/>
<feBlend mode="normal" in="SourceGraphic" in2="BackgroundImageFix" result="shape"/>
<feGaussianBlur stdDeviation="4.6377" result="effect1_foregroundBlur_125_2564"/>
</filter>
<filter id="filter10_f_125_2564" x="182.926" y="190.283" width="74.5587" height="103.812" filterUnits="userSpaceOnUse" color-interpolation-filters="sRGB">
<feFlood flood-opacity="0" result="BackgroundImageFix"/>
<feBlend mode="normal" in="SourceGraphic" in2="BackgroundImageFix" result="shape"/>
<feGaussianBlur stdDeviation="7.95034" result="effect1_foregroundBlur_125_2564"/>
</filter>
<filter id="filter11_f_125_2564" x="125.761" y="72.7127" width="129.985" height="95.3231" filterUnits="userSpaceOnUse" color-interpolation-filters="sRGB">
<feFlood flood-opacity="0" result="BackgroundImageFix"/>
<feBlend mode="normal" in="SourceGraphic" in2="BackgroundImageFix" result="shape"/>
<feGaussianBlur stdDeviation="13.2506" result="effect1_foregroundBlur_125_2564"/>
</filter>
<linearGradient id="paint0_linear_125_2564" x1="330.856" y1="178.824" x2="374.618" y2="204.069" gradientUnits="userSpaceOnUse">
<stop stop-color="#7ECAA6"/>
<stop offset="0.264085" stop-color="#61BDD1"/>
<stop offset="0.576639" stop-color="#CF6DDD"/>
<stop offset="0.846103" stop-color="#4061F8"/>
</linearGradient>
<linearGradient id="paint1_linear_125_2564" x1="372.925" y1="170.56" x2="395.343" y2="183.492" gradientUnits="userSpaceOnUse">
<stop stop-color="#7ECAA6"/>
<stop offset="0.264085" stop-color="#61BDD1"/>
<stop offset="0.576639" stop-color="#CF6DDD"/>
<stop offset="0.846103" stop-color="#4061F8"/>
</linearGradient>
<linearGradient id="paint2_linear_125_2564" x1="59.3415" y1="65.1823" x2="104.003" y2="100.576" gradientUnits="userSpaceOnUse">
<stop stop-color="#7ECAA6"/>
<stop offset="0.264085" stop-color="#61BDD1"/>
<stop offset="0.576639" stop-color="#CF6DDD"/>
<stop offset="0.846103" stop-color="#4061F8"/>
</linearGradient>
<linearGradient id="paint3_linear_125_2564" x1="73.6538" y1="55.8631" x2="97.3349" y2="71.5334" gradientUnits="userSpaceOnUse">
<stop stop-color="#F4F4F4"/>
<stop offset="0.479167" stop-color="white"/>
<stop offset="1" stop-color="#FCFCFC"/>
</linearGradient>
<linearGradient id="paint4_linear_125_2564" x1="59.3415" y1="55.9937" x2="74.8514" y2="85.7793" gradientUnits="userSpaceOnUse">
<stop stop-color="#7ECAA6"/>
<stop offset="0.264085" stop-color="#61BDD1"/>
<stop offset="0.576639" stop-color="#CF6DDD"/>
<stop offset="0.846103" stop-color="#4061F8"/>
</linearGradient>
<linearGradient id="paint5_linear_125_2564" x1="105.722" y1="345.995" x2="149.092" y2="380.049" gradientUnits="userSpaceOnUse">
<stop stop-color="#7ECAA6"/>
<stop offset="0.264085" stop-color="#61BDD1"/>
<stop offset="0.576639" stop-color="#CF6DDD"/>
<stop offset="0.846103" stop-color="#4061F8"/>
</linearGradient>
<linearGradient id="paint6_linear_125_2564" x1="118.108" y1="182.426" x2="239.018" y2="250.372" gradientUnits="userSpaceOnUse">
<stop stop-color="#6BF0D7"/>
<stop offset="0.458585" stop-color="#6BF0D5"/>
<stop offset="1" stop-color="#50B8AF"/>
</linearGradient>
<linearGradient id="paint7_linear_125_2564" x1="118.108" y1="168.834" x2="239.018" y2="236.78" gradientUnits="userSpaceOnUse">
<stop stop-color="#59C9CA"/>
<stop offset="0.46875" stop-color="#58C8C9"/>
<stop offset="1" stop-color="#429AA0"/>
</linearGradient>
<linearGradient id="paint8_linear_125_2564" x1="169.241" y1="128.435" x2="238.996" y2="223.166" gradientUnits="userSpaceOnUse">
<stop stop-color="#4EAFB5"/>
<stop offset="0.46875" stop-color="#4DB0B5"/>
<stop offset="1" stop-color="#3884A6"/>
</linearGradient>
<linearGradient id="paint9_linear_125_2564" x1="169.241" y1="114.843" x2="238.996" y2="209.574" gradientUnits="userSpaceOnUse">
<stop stop-color="#5FE2BF"/>
<stop offset="1" stop-color="#276491"/>
</linearGradient>
<linearGradient id="paint10_linear_125_2564" x1="169.241" y1="114.843" x2="238.996" y2="209.574" gradientUnits="userSpaceOnUse">
<stop stop-color="#5FE2BF"/>
<stop offset="1" stop-color="#276491"/>
</linearGradient>
<linearGradient id="paint11_linear_125_2564" x1="141.13" y1="171.523" x2="235.944" y2="218.331" gradientUnits="userSpaceOnUse">
<stop stop-color="#62F0CD"/>
<stop offset="1" stop-color="#286592"/>
</linearGradient>
<linearGradient id="paint12_linear_125_2564" x1="209.002" y1="257.719" x2="181.495" y2="257.719" gradientUnits="userSpaceOnUse">
<stop stop-color="#568DAC"/>
<stop offset="1" stop-color="#48A6B0" stop-opacity="0"/>
</linearGradient>
<linearGradient id="paint13_linear_125_2564" x1="198.827" y1="257.875" x2="241.578" y2="242.17" gradientUnits="userSpaceOnUse">
<stop stop-color="#5995B0"/>
<stop offset="1" stop-color="#5995B0" stop-opacity="0"/>
</linearGradient>
<linearGradient id="paint14_linear_125_2564" x1="169.407" y1="114.843" x2="239.162" y2="209.574" gradientUnits="userSpaceOnUse">
<stop stop-color="#5FE2BF"/>
<stop offset="1" stop-color="#276491"/>
</linearGradient>
<linearGradient id="paint15_linear_125_2564" x1="194.637" y1="100.761" x2="194.637" y2="278.478" gradientUnits="userSpaceOnUse">
<stop stop-color="#70BBB2"/>
<stop offset="1" stop-color="#84CAC1"/>
</linearGradient>
</defs>
</svg>
