<svg width="49" height="48" viewBox="0 0 49 48" fill="none" xmlns="http://www.w3.org/2000/svg">
<g filter="url(#filter0_dd_125_10834)">
<rect x="6" y="2" width="36.0474" height="36" rx="18" fill="white"/>
<rect x="6" y="2" width="36.0474" height="36" rx="18" fill="url(#paint0_linear_125_10834)"/>
</g>
<path d="M24.0222 15.2754C21.4077 15.2754 19.291 17.3916 19.291 20.0004C19.291 22.6115 21.41 24.7254 24.0222 24.7254C26.6368 24.7254 28.7535 22.6092 28.7535 20.0004C28.7535 17.3893 26.6345 15.2754 24.0222 15.2754ZM24.0222 23.0673C22.3251 23.0673 20.9513 21.6946 20.9513 20.0004C20.9513 18.3062 22.3258 16.9335 24.0222 16.9335C25.7187 16.9335 27.0932 18.3062 27.0932 20.0004C27.0939 21.6946 25.7194 23.0673 24.0222 23.0673Z" fill="white"/>
<path d="M27.7396 11.0565C26.0814 10.9793 21.9743 10.983 20.3146 11.0565C18.8562 11.1248 17.5698 11.4765 16.5326 12.5123C14.7994 14.2432 15.0209 16.5757 15.0209 19.9964C15.0209 23.4973 14.8256 25.7758 16.5326 27.4805C18.2727 29.2175 20.642 28.9902 24.0267 28.9902C27.4993 28.9902 28.6979 28.9925 29.9258 28.5177C31.5952 27.8705 32.8554 26.3803 32.9785 23.7036C33.0566 22.0468 33.0521 17.9459 32.9785 16.2884C32.8298 13.1288 31.1318 11.2125 27.7396 11.0565ZM30.3643 26.3353C29.2281 27.47 27.6518 27.3688 24.005 27.3688C20.25 27.3688 18.7443 27.4243 17.6456 26.324C16.3802 25.0663 16.6092 23.0466 16.6092 19.9844C16.6092 15.8407 16.1834 12.8565 20.3477 12.6435C21.3044 12.6098 21.586 12.5985 23.9945 12.5985L24.0282 12.621C28.0303 12.621 31.1701 12.2025 31.3586 16.3604C31.4014 17.3092 31.4112 17.5942 31.4112 19.9956C31.4105 23.7021 31.4811 25.2148 30.3643 26.3353Z" fill="white"/>
<path d="M28.8654 16.1754C29.4253 16.1754 29.8792 15.7221 29.8792 15.1629C29.8792 14.6037 29.4253 14.1504 28.8654 14.1504C28.3055 14.1504 27.8516 14.6037 27.8516 15.1629C27.8516 15.7221 28.3055 16.1754 28.8654 16.1754Z" fill="white"/>
<defs>
<filter id="filter0_dd_125_10834" x="0" y="0" width="48.0474" height="48" filterUnits="userSpaceOnUse" color-interpolation-filters="sRGB">
<feFlood flood-opacity="0" result="BackgroundImageFix"/>
<feColorMatrix in="SourceAlpha" type="matrix" values="0 0 0 0 0 0 0 0 0 0 0 0 0 0 0 0 0 0 127 0" result="hardAlpha"/>
<feOffset dy="4"/>
<feGaussianBlur stdDeviation="3"/>
<feColorMatrix type="matrix" values="0 0 0 0 0 0 0 0 0 0 0 0 0 0 0 0 0 0 0.1 0"/>
<feBlend mode="normal" in2="BackgroundImageFix" result="effect1_dropShadow_125_10834"/>
<feColorMatrix in="SourceAlpha" type="matrix" values="0 0 0 0 0 0 0 0 0 0 0 0 0 0 0 0 0 0 127 0" result="hardAlpha"/>
<feOffset dy="2"/>
<feGaussianBlur stdDeviation="2"/>
<feColorMatrix type="matrix" values="0 0 0 0 0 0 0 0 0 0 0 0 0 0 0 0 0 0 0.06 0"/>
<feBlend mode="normal" in2="effect1_dropShadow_125_10834" result="effect2_dropShadow_125_10834"/>
<feBlend mode="normal" in="SourceGraphic" in2="effect2_dropShadow_125_10834" result="shape"/>
</filter>
<linearGradient id="paint0_linear_125_10834" x1="11.2794" y1="32.7276" x2="36.7345" y2="7.23893" gradientUnits="userSpaceOnUse">
<stop stop-color="#FFC107"/>
<stop offset="0.507" stop-color="#F44336"/>
<stop offset="0.99" stop-color="#9C27B0"/>
</linearGradient>
</defs>
</svg>
