<svg width="180" height="60" viewBox="0 0 180 60" fill="none" xmlns="http://www.w3.org/2000/svg">
<rect width="180" height="60" rx="30" fill="#4061F8"/>
<path d="M47.5632 35.5H50.0292V25.96H53.7912V35.5H56.2572V23.692H47.5632V35.5ZM61.8872 35.716C64.3532 35.716 65.9192 34.24 65.9192 31.954V30.028C65.9192 27.742 64.3532 26.248 61.8872 26.248C59.4572 26.248 57.8912 27.742 57.8912 30.028V31.954C57.8912 34.24 59.4752 35.716 61.8872 35.716ZM61.9052 33.484C60.9152 33.484 60.2852 32.89 60.2852 31.9V30.118C60.2852 29.11 60.8972 28.498 61.9052 28.498C62.9132 28.498 63.5252 29.11 63.5252 30.118V31.9C63.5252 32.89 62.9132 33.484 61.9052 33.484ZM75.3001 33.322V26.482H68.1901L68.1541 30.442C68.1361 31.504 67.9201 32.494 67.4521 33.322H66.3901V37.858H68.7841V35.5H74.1301V37.858H76.5421V33.322H75.3001ZM69.7561 33.322C70.1341 32.512 70.3141 31.558 70.3321 30.55L70.3681 28.642H72.9061V33.322H69.7561ZM82.2449 26.248C81.3269 26.248 80.4989 26.536 79.8689 27.076L79.7969 26.482H77.6729V38.56H80.0669V35.068C80.6609 35.5 81.4169 35.716 82.2629 35.716C84.2969 35.716 85.6829 34.33 85.6829 32.152V29.83C85.6829 27.616 84.2969 26.248 82.2449 26.248ZM83.2709 31.918C83.2709 32.908 82.6589 33.484 81.6869 33.484C80.9849 33.484 80.4089 33.196 80.0669 32.728V29.272C80.4089 28.786 81.0209 28.498 81.6869 28.498C82.6589 28.498 83.2709 29.074 83.2709 30.064V31.918ZM90.9614 35.716C93.4274 35.716 94.9934 34.24 94.9934 31.954V30.028C94.9934 27.742 93.4274 26.248 90.9614 26.248C88.5314 26.248 86.9654 27.742 86.9654 30.028V31.954C86.9654 34.24 88.5494 35.716 90.9614 35.716ZM90.9794 33.484C89.9894 33.484 89.3594 32.89 89.3594 31.9V30.118C89.3594 29.11 89.9714 28.498 90.9794 28.498C91.9874 28.498 92.5994 29.11 92.5994 30.118V31.9C92.5994 32.89 91.9874 33.484 90.9794 33.484ZM101.034 27.022C100.098 27.022 99.2338 27.346 98.6398 27.868C98.6578 26.626 99.2158 26.086 100.71 25.87L102.294 25.636C103.716 25.42 104.292 24.826 104.292 23.548V22.972H101.934V23.206C101.934 23.458 101.79 23.566 101.376 23.62L100.062 23.8C97.4878 24.16 96.4258 25.78 96.4258 29.344V31.45C96.4258 34.132 97.9558 35.716 100.566 35.716C103.032 35.716 104.526 34.294 104.526 31.972V30.694C104.526 28.444 103.176 27.022 101.034 27.022ZM102.132 31.846C102.132 32.944 101.556 33.538 100.53 33.538C99.4138 33.538 98.8378 32.908 98.8378 31.648V29.83C99.3058 29.38 99.9178 29.128 100.548 29.128C101.61 29.128 102.132 29.704 102.132 30.874V31.846ZM106.097 35.5H108.491V32.062H111.605V35.5H114.017V26.482H111.605V29.884H108.491V26.482H106.097V35.5ZM123.539 31.756V29.992C123.539 27.742 121.991 26.248 119.579 26.248C117.167 26.248 115.583 27.742 115.583 30.01V31.972C115.583 34.258 117.167 35.716 119.615 35.716C121.883 35.716 123.413 34.546 123.539 32.62H121.145C121.091 33.178 120.479 33.592 119.615 33.592C118.589 33.592 117.959 32.998 117.959 31.972V31.756H123.539ZM119.579 28.39C120.551 28.39 121.163 28.984 121.163 30.01H117.959C117.959 28.984 118.589 28.39 119.579 28.39ZM132.785 31.756V29.992C132.785 27.742 131.237 26.248 128.825 26.248C126.413 26.248 124.829 27.742 124.829 30.01V31.972C124.829 34.258 126.413 35.716 128.861 35.716C131.129 35.716 132.659 34.546 132.785 32.62H130.391C130.337 33.178 129.725 33.592 128.861 33.592C127.835 33.592 127.205 32.998 127.205 31.972V31.756H132.785ZM128.825 28.39C129.797 28.39 130.409 28.984 130.409 30.01H127.205C127.205 28.984 127.835 28.39 128.825 28.39Z" fill="#FBFBFD"/>
</svg>
