<svg width="118" height="30" viewBox="0 0 118 30" fill="none" xmlns="http://www.w3.org/2000/svg">
<path d="M1.27844 20H3.47044V11.52H6.81444V20H9.00644V9.504H1.27844V20ZM14.0108 20.192C16.2028 20.192 17.5948 18.88 17.5948 16.848V15.136C17.5948 13.104 16.2028 11.776 14.0108 11.776C11.8508 11.776 10.4588 13.104 10.4588 15.136V16.848C10.4588 18.88 11.8668 20.192 14.0108 20.192ZM14.0268 18.208C13.1468 18.208 12.5868 17.68 12.5868 16.8V15.216C12.5868 14.32 13.1308 13.776 14.0268 13.776C14.9228 13.776 15.4668 14.32 15.4668 15.216V16.8C15.4668 17.68 14.9228 18.208 14.0268 18.208ZM25.9334 18.064V11.984H19.6134L19.5814 15.504C19.5654 16.448 19.3734 17.328 18.9574 18.064H18.0134V22.096H20.1414V20H24.8934V22.096H27.0374V18.064H25.9334ZM21.0054 18.064C21.3414 17.344 21.5014 16.496 21.5174 15.6L21.5494 13.904H23.8054V18.064H21.0054ZM32.1066 11.776C31.2906 11.776 30.5546 12.032 29.9946 12.512L29.9306 11.984H28.0426V22.72H30.1706V19.616C30.6986 20 31.3706 20.192 32.1226 20.192C33.9306 20.192 35.1626 18.96 35.1626 17.024V14.96C35.1626 12.992 33.9306 11.776 32.1066 11.776ZM33.0186 16.816C33.0186 17.696 32.4746 18.208 31.6106 18.208C30.9866 18.208 30.4746 17.952 30.1706 17.536V14.464C30.4746 14.032 31.0186 13.776 31.6106 13.776C32.4746 13.776 33.0186 14.288 33.0186 15.168V16.816ZM39.8546 20.192C42.0466 20.192 43.4386 18.88 43.4386 16.848V15.136C43.4386 13.104 42.0466 11.776 39.8546 11.776C37.6946 11.776 36.3026 13.104 36.3026 15.136V16.848C36.3026 18.88 37.7106 20.192 39.8546 20.192ZM39.8706 18.208C38.9906 18.208 38.4306 17.68 38.4306 16.8V15.216C38.4306 14.32 38.9746 13.776 39.8706 13.776C40.7666 13.776 41.3106 14.32 41.3106 15.216V16.8C41.3106 17.68 40.7666 18.208 39.8706 18.208ZM48.8078 12.464C47.9758 12.464 47.2078 12.752 46.6798 13.216C46.6958 12.112 47.1918 11.632 48.5198 11.44L49.9278 11.232C51.1918 11.04 51.7038 10.512 51.7038 9.376V8.864H49.6078V9.072C49.6078 9.296 49.4798 9.392 49.1118 9.44L47.9438 9.6C45.6558 9.92 44.7118 11.36 44.7118 14.528V16.4C44.7118 18.784 46.0718 20.192 48.3918 20.192C50.5838 20.192 51.9118 18.928 51.9118 16.864V15.728C51.9118 13.728 50.7118 12.464 48.8078 12.464ZM49.7838 16.752C49.7838 17.728 49.2718 18.256 48.3598 18.256C47.3678 18.256 46.8558 17.696 46.8558 16.576V14.96C47.2718 14.56 47.8158 14.336 48.3758 14.336C49.3198 14.336 49.7838 14.848 49.7838 15.888V16.752ZM53.3082 20H55.4362V16.944H58.2042V20H60.3482V11.984H58.2042V15.008H55.4362V11.984H53.3082V20ZM68.8121 16.672V15.104C68.8121 13.104 67.4361 11.776 65.2921 11.776C63.1481 11.776 61.7401 13.104 61.7401 15.12V16.864C61.7401 18.896 63.1481 20.192 65.3241 20.192C67.3401 20.192 68.7001 19.152 68.8121 17.44H66.6841C66.6361 17.936 66.0921 18.304 65.3241 18.304C64.4121 18.304 63.8521 17.776 63.8521 16.864V16.672H68.8121ZM65.2921 13.68C66.1561 13.68 66.7001 14.208 66.7001 15.12H63.8521C63.8521 14.208 64.4121 13.68 65.2921 13.68ZM77.0308 16.672V15.104C77.0308 13.104 75.6548 11.776 73.5108 11.776C71.3668 11.776 69.9588 13.104 69.9588 15.12V16.864C69.9588 18.896 71.3668 20.192 73.5428 20.192C75.5588 20.192 76.9188 19.152 77.0308 17.44H74.9028C74.8548 17.936 74.3108 18.304 73.5428 18.304C72.6308 18.304 72.0708 17.776 72.0708 16.864V16.672H77.0308ZM73.5108 13.68C74.3748 13.68 74.9188 14.208 74.9188 15.12H72.0708C72.0708 14.208 72.6308 13.68 73.5108 13.68Z" fill="#151516"/>
<circle cx="103" cy="15" r="15" fill="#151516"/>
<path d="M102 12L105 15L102 18" stroke="#FBFAFF" stroke-width="2" stroke-linecap="round" stroke-linejoin="round"/>
</svg>
