<svg width="49" height="48" viewBox="0 0 49 48" fill="none" xmlns="http://www.w3.org/2000/svg">
<g filter="url(#filter0_dd_125_10857)">
<rect x="6" y="2" width="36.0474" height="36" rx="18" fill="#47AF53"/>
</g>
<path d="M24.0141 11H24.0096C19.0407 11 15 15.0365 15 20C15 21.9688 15.6353 23.7935 16.7156 25.2751L15.5925 28.6186L19.0565 27.5128C20.4815 28.4555 22.1813 29 24.0141 29C28.983 29 33.0237 24.9624 33.0237 20C33.0237 15.0376 28.983 11 24.0141 11Z" fill="white"/>
<path d="M29.2553 23.709C29.0379 24.3221 28.175 24.8306 27.4868 24.9791C27.0159 25.0792 26.4008 25.1591 24.3304 24.3018C21.682 23.2061 19.9765 20.5185 19.8436 20.3441C19.7163 20.1697 18.7734 18.921 18.7734 17.6295C18.7734 16.338 19.4302 15.7091 19.6949 15.4391C19.9123 15.2175 20.2717 15.1162 20.6164 15.1162C20.7279 15.1162 20.8281 15.1218 20.9183 15.1263C21.183 15.1376 21.3159 15.1533 21.4905 15.5707C21.7079 16.0938 22.2374 17.3853 22.3004 17.5181C22.3647 17.6508 22.4289 17.8308 22.3388 18.0052C22.2543 18.1852 22.1799 18.2651 22.047 18.4181C21.9141 18.5711 21.7879 18.6881 21.655 18.8523C21.5333 18.9952 21.3959 19.1482 21.5491 19.4126C21.7023 19.6713 22.2317 20.5342 23.0113 21.2272C24.0172 22.1216 24.8328 22.4073 25.1245 22.5288C25.3419 22.6188 25.601 22.5975 25.7599 22.4287C25.9615 22.2116 26.2105 21.8516 26.4639 21.4972C26.6442 21.243 26.8717 21.2115 27.1105 21.3015C27.3538 21.3858 28.6414 22.0215 28.9061 22.1531C29.1709 22.2858 29.3455 22.3488 29.4097 22.4602C29.4728 22.5716 29.4728 23.0947 29.2553 23.709Z" fill="#47AF53"/>
<defs>
<filter id="filter0_dd_125_10857" x="0" y="0" width="48.0474" height="48" filterUnits="userSpaceOnUse" color-interpolation-filters="sRGB">
<feFlood flood-opacity="0" result="BackgroundImageFix"/>
<feColorMatrix in="SourceAlpha" type="matrix" values="0 0 0 0 0 0 0 0 0 0 0 0 0 0 0 0 0 0 127 0" result="hardAlpha"/>
<feOffset dy="4"/>
<feGaussianBlur stdDeviation="3"/>
<feColorMatrix type="matrix" values="0 0 0 0 0 0 0 0 0 0 0 0 0 0 0 0 0 0 0.1 0"/>
<feBlend mode="normal" in2="BackgroundImageFix" result="effect1_dropShadow_125_10857"/>
<feColorMatrix in="SourceAlpha" type="matrix" values="0 0 0 0 0 0 0 0 0 0 0 0 0 0 0 0 0 0 127 0" result="hardAlpha"/>
<feOffset dy="2"/>
<feGaussianBlur stdDeviation="2"/>
<feColorMatrix type="matrix" values="0 0 0 0 0 0 0 0 0 0 0 0 0 0 0 0 0 0 0.06 0"/>
<feBlend mode="normal" in2="effect1_dropShadow_125_10857" result="effect2_dropShadow_125_10857"/>
<feBlend mode="normal" in="SourceGraphic" in2="effect2_dropShadow_125_10857" result="shape"/>
</filter>
</defs>
</svg>
